<svg width="1440" height="2294" viewBox="0 0 1440 2294" fill="none" xmlns="http://www.w3.org/2000/svg">
<path fill-rule="evenodd" clip-rule="evenodd" d="M0 399H245V397.973L202.243 371.919L164.291 216.652L155.802 268.106L128.337 296.993L51.9339 70.4118H16.9784L4.36411e-06 0L0 3.83958e-06V399Z" fill="#3EBEE5"/>
<path fill-rule="evenodd" clip-rule="evenodd" d="M1386.07 143.532L1440 0V399H1294V397.628L1352.11 143.532L1386.07 143.532Z" fill="#3EBEE5"/>
<path d="M1234.64 399H1289.97H1440V1272H0V399H245.234L254.704 450.922L286.106 534.354L324.486 522.538L354.393 652.521L396.76 640.346L442.617 688.329L465.047 677.587L474.019 714.827L417.196 745.264L488.972 796.827L548.287 887.064L701.308 852.688L848.847 767.823L924.611 675.08L1063.18 613.848L1129.47 559.42V522.538L1157.38 497.114V522.538L1179.31 534.354L1234.64 399Z" fill="#3EBEE5"/>
<rect y="1270" width="1440" height="1024" fill="#3EBEE5"/>
<path fill-rule="evenodd" clip-rule="evenodd" d="M0 2294H1439V1023.95L1403.92 1092.41H1329.64L1167.28 1318.99L1108.92 1290.11L1090.88 1238.65L1010.23 1393.92L919.375 1419.97V1421H918.878L898.754 1472.92L832.025 1556.35L750.467 1544.54L686.916 1674.52L596.885 1662.35L499.439 1710.33L451.776 1699.59L432.71 1736.83L553.458 1767.26L400.935 1818.83L274.891 1909.06L0 1880V2294Z" fill="#30A9D8"/>
</svg>
