<?xml version="1.0" encoding="UTF-8" standalone="no"?>
<!DOCTYPE svg PUBLIC "-//W3C//DTD SVG 1.1//EN" "http://www.w3.org/Graphics/SVG/1.1/DTD/svg11.dtd">
<svg width="100%" height="100%" viewBox="0 0 113 239" version="1.1" xmlns="http://www.w3.org/2000/svg" xmlns:xlink="http://www.w3.org/1999/xlink" xml:space="preserve" xmlns:serif="http://www.serif.com/" style="fill-rule:evenodd;clip-rule:evenodd;stroke-linejoin:round;stroke-miterlimit:2;">
    <g transform="matrix(1,0,0,1,-951,-1149)">
        <g transform="matrix(3.00173,0,0,3.00173,1028.78,1344.78)">
            <path d="M0,-50.843C0.013,-50.769 0.026,-50.695 0.041,-50.622C0.056,-50.549 0.072,-50.476 0.09,-50.404C0.061,-50.55 0.031,-50.697 0,-50.843M-15.565,-50.304C-15.833,-49.488 -15.952,-48.74 -15.96,-48.038C-15.884,-48.329 -15.819,-48.62 -15.765,-48.911C-15.679,-49.374 -15.615,-49.838 -15.565,-50.304M-8.292,-50.543C-8.371,-50.208 -8.427,-49.865 -8.475,-49.527C-8.472,-49.292 -8.464,-49.054 -8.451,-48.815C-8.429,-48.389 -8.186,-48.03 -8.068,-47.637C-7.735,-48.492 -7.388,-49.343 -7.11,-50.218C-7.086,-50.292 -7.064,-50.366 -7.043,-50.442C-7.208,-50.45 -7.371,-50.461 -7.535,-50.474C-7.786,-50.494 -8.038,-50.517 -8.292,-50.543M-2.912,-47.063C-2.885,-46.95 -2.838,-46.85 -2.781,-46.756C-2.725,-46.661 -2.657,-46.574 -2.587,-46.489C-2.697,-46.679 -2.807,-46.871 -2.912,-47.063M-16.232,-51.364C-16.331,-51.053 -16.422,-50.736 -16.513,-50.416C-16.979,-48.767 -17.074,-47.188 -16.921,-45.657C-16.772,-45.927 -16.632,-46.208 -16.5,-46.502C-16.443,-46.629 -16.39,-46.756 -16.339,-46.883C-16.502,-47.981 -16.433,-49.161 -15.97,-50.524C-15.875,-50.804 -15.771,-51.081 -15.657,-51.354C-15.85,-51.36 -16.042,-51.364 -16.232,-51.364M2.314,-51.426L2.24,-51.409C1.818,-50.698 1.305,-50.12 1.203,-48.984C1.183,-48.759 1.168,-48.479 1.172,-48.209C1.47,-47.799 1.803,-47.4 2.151,-46.996C2.596,-46.483 3.065,-45.964 3.525,-45.407C3.479,-45.542 3.435,-45.676 3.39,-45.811C2.957,-47.109 2.545,-48.436 2.377,-49.737C2.303,-50.306 2.276,-50.87 2.314,-51.426M-15.017,-51.324C-15.08,-50.486 -15.156,-49.654 -15.311,-48.826C-15.436,-48.157 -15.61,-47.492 -15.865,-46.83C-15.829,-46.611 -15.782,-46.396 -15.729,-46.182C-15.61,-45.723 -15.456,-45.275 -15.277,-44.829C-15.186,-44.998 -15.095,-45.167 -15.005,-45.336C-14.63,-46.045 -14.278,-46.767 -14.004,-47.534C-13.911,-47.787 -13.835,-48.043 -13.771,-48.302C-13.957,-49.525 -14.139,-50.437 -13.865,-51.233C-14.25,-51.27 -14.634,-51.301 -15.017,-51.324M-1.553,-50.544C-1.847,-49.508 -2.558,-48.663 -2.833,-47.898C-2.45,-47.143 -1.997,-46.401 -1.574,-45.667C-1.352,-45.279 -1.138,-44.893 -0.945,-44.509C-0.923,-45.202 -0.932,-45.929 -0.971,-46.654C-1.046,-48.044 -1.235,-49.425 -1.553,-50.544M-6.609,-50.313C-6.631,-50.235 -6.653,-50.157 -6.678,-50.081C-7.107,-48.723 -7.705,-47.421 -8.152,-46.072C-8.297,-45.637 -8.425,-45.198 -8.526,-44.75C-8.437,-44.315 -8.318,-43.913 -8.175,-43.533C-7.886,-44 -7.59,-44.463 -7.298,-44.929C-6.757,-45.795 -6.231,-46.674 -5.794,-47.618C-5.795,-47.667 -5.797,-47.716 -5.8,-47.765C-5.844,-48.517 -6.193,-49.429 -6.609,-50.313M-9.099,-45.403C-9.374,-45.066 -9.593,-44.699 -9.594,-44.208C-9.594,-43.845 -9.394,-43.681 -9.217,-43.482C-9.172,-43.803 -9.122,-44.116 -9.065,-44.419C-9.045,-44.531 -9.022,-44.643 -8.997,-44.754C-9.038,-44.963 -9.072,-45.178 -9.099,-45.403M4.167,-51.81C3.924,-51.775 3.689,-51.736 3.47,-51.685C3.241,-51.632 3.01,-51.579 2.777,-51.527C2.729,-50.959 2.757,-50.38 2.833,-49.796C3,-48.523 3.411,-47.227 3.821,-45.953C3.992,-45.424 4.163,-44.898 4.318,-44.38C4.6,-43.985 4.867,-43.568 5.112,-43.12C5.132,-43.22 5.148,-43.321 5.162,-43.422C5.386,-44.994 5.273,-46.521 5.017,-48.028C4.8,-49.297 4.48,-50.553 4.167,-51.81M-16.182,-46.101C-16.382,-45.687 -16.6,-45.298 -16.828,-44.927C-16.743,-44.369 -16.627,-43.816 -16.486,-43.268C-16.449,-43.126 -16.411,-42.984 -16.371,-42.842C-16.107,-43.339 -15.833,-43.828 -15.561,-44.318C-15.808,-44.895 -16.021,-45.472 -16.174,-46.069C-16.176,-46.08 -16.179,-46.091 -16.182,-46.101M-8.721,-43.69C-8.786,-43.259 -8.841,-42.81 -8.885,-42.348C-8.79,-42.515 -8.692,-42.681 -8.594,-42.846C-8.556,-42.911 -8.517,-42.976 -8.477,-43.041C-8.507,-43.112 -8.535,-43.183 -8.563,-43.255C-8.619,-43.397 -8.672,-43.541 -8.721,-43.69M4.716,-42.91C4.773,-42.658 4.823,-42.41 4.864,-42.165C4.896,-42.262 4.926,-42.359 4.953,-42.456C4.877,-42.612 4.797,-42.762 4.716,-42.91M-13.637,-47.213C-13.964,-46.38 -14.371,-45.596 -14.812,-44.831C-14.901,-44.675 -14.992,-44.52 -15.084,-44.365C-14.77,-43.642 -14.406,-42.919 -14.053,-42.159C-14.025,-42.223 -13.998,-42.288 -13.971,-42.353C-13.629,-43.156 -13.37,-43.988 -13.165,-44.835C-13.168,-44.843 -13.172,-44.85 -13.175,-44.858C-13.518,-45.599 -13.565,-46.41 -13.637,-47.213M-0.474,-50.891C-0.7,-50.854 -0.927,-50.819 -1.153,-50.785C-0.806,-49.614 -0.595,-48.152 -0.514,-46.678C-0.455,-45.62 -0.463,-44.556 -0.532,-43.591C-0.482,-43.463 -0.437,-43.335 -0.394,-43.207C-0.199,-42.612 -0.087,-41.998 -0.024,-41.375C0.72,-43.313 1.157,-45.189 0.526,-47.995C0.492,-48.148 0.459,-48.313 0.427,-48.488C0.222,-48.815 0.042,-49.152 -0.105,-49.505C-0.283,-49.933 -0.395,-50.384 -0.467,-50.847C-0.47,-50.862 -0.472,-50.877 -0.474,-50.891M-5.923,-46.344C-6.402,-45.468 -6.94,-44.634 -7.479,-43.801C-7.644,-43.547 -7.809,-43.293 -7.972,-43.038C-7.627,-42.269 -7.188,-41.575 -6.71,-40.847C-6.693,-40.896 -6.677,-40.945 -6.661,-40.994C-6.531,-41.471 -6.419,-41.95 -6.319,-42.432C-6.178,-43.116 -6.062,-43.805 -5.961,-44.497C-5.983,-44.577 -6.001,-44.66 -6.013,-44.745C-6.088,-45.284 -6.007,-45.814 -5.923,-46.344M-15.37,-43.885C-15.664,-43.395 -15.96,-42.904 -16.241,-42.403C-15.972,-41.524 -15.645,-40.657 -15.285,-39.798C-14.945,-40.357 -14.614,-40.954 -14.304,-41.606C-14.659,-42.399 -15.035,-43.145 -15.37,-43.885M-5.472,-43.501C-5.568,-43.044 -5.682,-42.594 -5.813,-42.153C-5.938,-41.735 -6.069,-41.319 -6.207,-40.905C-6.259,-40.714 -6.312,-40.523 -6.37,-40.333C-6.257,-40.162 -6.144,-39.989 -6.028,-39.811C-5.796,-39.45 -5.561,-39.072 -5.325,-38.667C-5.031,-39.943 -4.605,-41.451 -4.995,-42.585C-5.107,-42.91 -5.29,-43.205 -5.472,-43.501M2.09,-46.365C2.353,-45.599 2.454,-44.797 2.891,-44.097C3.115,-43.735 3.729,-43.569 3.731,-43.086C3.739,-42.042 2.804,-41.285 2.15,-40.478C2.379,-39.648 2.755,-38.864 3.122,-38.072C3.414,-38.779 3.752,-39.485 4.07,-40.189C4.26,-40.607 4.443,-41.023 4.605,-41.439C4.58,-41.623 4.55,-41.807 4.517,-41.99C4.404,-42.611 4.225,-43.252 4.019,-43.909C3.999,-43.972 3.979,-44.035 3.959,-44.099C3.948,-44.114 3.937,-44.13 3.926,-44.145C3.339,-44.958 2.697,-45.674 2.09,-46.365M-12.842,-44.237C-13.032,-43.534 -13.263,-42.844 -13.549,-42.174C-13.632,-41.981 -13.717,-41.793 -13.804,-41.609C-13.592,-41.132 -13.39,-40.638 -13.211,-40.118C-12.844,-39.055 -12.583,-37.923 -12.439,-36.779C-12.417,-36.594 -12.396,-36.409 -12.38,-36.224C-12.311,-36.335 -12.245,-36.447 -12.187,-36.559C-11.63,-37.62 -12.193,-38.624 -12.105,-39.701C-12.044,-40.446 -11.639,-41.06 -11.728,-41.846C-11.821,-42.669 -12.391,-43.474 -12.842,-44.237M-2.082,-45.629C-1.824,-44.153 -2.335,-38.75 -2.809,-37.349C-2.856,-37.209 -2.935,-37.055 -3.035,-36.892C-2.997,-36.667 -2.956,-36.444 -2.913,-36.22C-2.878,-36.34 -2.843,-36.46 -2.807,-36.579C-2.303,-38.239 -1.679,-39.858 -1.283,-41.551C-1.147,-42.133 -1.05,-42.838 -0.992,-43.609C-1.259,-44.213 -1.606,-44.821 -1.969,-45.438C-2.007,-45.502 -2.044,-45.565 -2.082,-45.629M-8.265,-42.572C-8.498,-42.197 -8.725,-41.818 -8.939,-41.43C-8.946,-41.417 -8.953,-41.404 -8.961,-41.391C-8.988,-40.958 -9.008,-40.516 -9.02,-40.068C-8.937,-39.805 -8.815,-39.47 -8.879,-39.294C-8.913,-39.198 -8.968,-39.113 -9.033,-39.032C-9.033,-38.064 -9.001,-37.073 -8.938,-36.084C-8.924,-35.85 -8.907,-35.617 -8.89,-35.384C-8.473,-36.294 -8.08,-37.166 -7.741,-37.967C-7.452,-38.741 -7.168,-39.516 -6.898,-40.294C-7.409,-41.067 -7.883,-41.787 -8.265,-42.572M-14.069,-41.067C-14.392,-40.436 -14.73,-39.856 -15.077,-39.312C-14.504,-37.991 -13.864,-36.686 -13.25,-35.381C-13.214,-35.305 -13.178,-35.229 -13.143,-35.153C-13.026,-35.311 -12.908,-35.468 -12.793,-35.626C-12.814,-35.991 -12.849,-36.357 -12.895,-36.721C-13.036,-37.834 -13.289,-38.934 -13.647,-39.968C-13.777,-40.346 -13.92,-40.712 -14.069,-41.067M-3.409,-36.362C-3.571,-36.153 -3.752,-35.938 -3.938,-35.723C-3.743,-35.198 -3.568,-34.677 -3.412,-34.16C-3.397,-34.238 -3.382,-34.316 -3.367,-34.393C-3.312,-34.673 -3.249,-34.95 -3.182,-35.225C-3.263,-35.602 -3.339,-35.982 -3.409,-36.362M-9.493,-38.529C-9.519,-38.495 -9.541,-38.461 -9.562,-38.425C-9.944,-37.747 -10.179,-36.551 -10.213,-35.749C-10.241,-35.088 -9.806,-34.636 -9.457,-34.147L-9.274,-34.544C-9.323,-35.045 -9.364,-35.55 -9.397,-36.054C-9.451,-36.883 -9.484,-37.712 -9.493,-38.529M-0.631,-42.604C-0.685,-42.183 -0.752,-41.793 -0.833,-41.445C-1.231,-39.743 -1.857,-38.114 -2.364,-36.446C-2.488,-36.04 -2.604,-35.632 -2.708,-35.22C-2.652,-34.963 -2.593,-34.707 -2.531,-34.452C-2.501,-34.324 -2.47,-34.197 -2.438,-34.07C-2.312,-34.908 -2.125,-35.745 -1.872,-36.577C-1.389,-38.166 -0.807,-39.452 -0.307,-40.668C-0.323,-40.864 -0.343,-41.059 -0.367,-41.253C-0.425,-41.711 -0.507,-42.162 -0.631,-42.604M3.144,-36.915C3.132,-36.884 3.122,-36.852 3.111,-36.82C2.797,-35.873 2.624,-34.925 2.77,-33.972C2.902,-33.096 3.266,-32.343 3.749,-31.635C3.815,-32.202 3.872,-32.771 3.887,-33.335C3.902,-33.928 3.871,-34.515 3.751,-35.088C3.622,-35.727 3.398,-36.328 3.144,-36.915M4.994,-50.356C5.175,-49.609 5.341,-48.86 5.471,-48.106C5.737,-46.552 5.85,-44.978 5.619,-43.357C5.577,-43.065 5.515,-42.772 5.436,-42.479C5.528,-42.28 5.616,-42.073 5.699,-41.862C6.611,-39.493 6.86,-37.234 6.669,-35.015C6.564,-33.797 6.327,-32.592 5.996,-31.387C7.298,-32.649 8.504,-34.177 8.787,-36.725C9.052,-39.051 8.857,-40.986 8.404,-42.72C7.781,-45.102 6.669,-47.105 5.577,-49.211C5.381,-49.589 5.187,-49.969 4.994,-50.356M-2.94,-34.179C-3.008,-33.839 -3.071,-33.494 -3.13,-33.146C-2.919,-32.315 -2.758,-31.493 -2.644,-30.677C-2.66,-31.397 -2.641,-32.115 -2.581,-32.831C-2.709,-33.28 -2.83,-33.729 -2.94,-34.179M5.236,-41.831C5.16,-41.609 5.077,-41.387 4.988,-41.166C5.04,-40.567 5.053,-39.964 5.032,-39.363C5.001,-38.468 4.896,-37.576 4.737,-36.697C4.729,-36.643 4.676,-36.605 4.621,-36.614C4.566,-36.623 4.529,-36.676 4.538,-36.73C4.665,-37.602 4.738,-38.485 4.741,-39.368C4.742,-39.743 4.73,-40.118 4.704,-40.492C4.632,-40.329 4.558,-40.165 4.482,-40.001C4.104,-39.178 3.698,-38.354 3.37,-37.528C3.706,-36.771 4.007,-35.997 4.161,-35.167C4.269,-34.561 4.285,-33.942 4.247,-33.319C4.206,-32.645 4.104,-31.966 3.995,-31.292C4.199,-31.018 4.42,-30.75 4.649,-30.482C4.702,-30.419 4.757,-30.356 4.812,-30.293C5.052,-30.512 5.297,-30.732 5.542,-30.959L5.572,-30.987C5.947,-32.336 6.212,-33.683 6.311,-35.044C6.468,-37.207 6.204,-39.405 5.289,-41.701C5.271,-41.744 5.254,-41.787 5.236,-41.831M5.356,-30.247C5.262,-30.163 5.167,-30.079 5.073,-29.996L5.142,-29.919L5.225,-29.825C5.27,-29.967 5.313,-30.107 5.356,-30.247M3.921,-30.833C3.834,-30.29 3.751,-29.752 3.704,-29.224C3.976,-29.514 4.27,-29.794 4.573,-30.075C4.516,-30.139 4.458,-30.203 4.401,-30.267C4.236,-30.454 4.075,-30.642 3.921,-30.833M1.812,-40.003C1.763,-39.92 1.719,-39.835 1.68,-39.749C1.503,-39.35 0.743,-33.511 0.76,-33.013C0.777,-32.483 1.228,-32.332 1.46,-31.927C1.757,-31.408 1.459,-30.811 1.913,-30.218C2.226,-29.811 2.913,-29.492 2.931,-28.925C2.948,-28.329 2.419,-27.777 2.343,-27.192C2.34,-27.169 2.338,-27.143 2.336,-27.115C2.376,-27.228 2.421,-27.339 2.468,-27.447C2.73,-28.04 3.104,-28.56 3.543,-29.049C3.512,-29.068 3.492,-29.102 3.494,-29.141C3.522,-29.79 3.605,-30.456 3.688,-31.129C3.052,-31.965 2.562,-32.852 2.386,-33.911C2.219,-34.924 2.383,-35.939 2.707,-36.952C2.763,-37.128 2.824,-37.303 2.89,-37.478C2.85,-37.564 2.81,-37.649 2.77,-37.734C2.418,-38.484 2.062,-39.227 1.812,-40.003M-6.55,-39.766C-6.572,-39.7 -6.595,-39.634 -6.618,-39.568C-6.807,-39.029 -7.046,-38.426 -7.322,-37.776C-7.806,-36.476 -8.3,-35.177 -8.749,-33.867C-8.516,-31.702 -8.145,-29.63 -7.668,-27.907C-7.562,-27.518 -7.421,-27.148 -7.262,-26.786C-6.969,-26.118 -6.615,-25.482 -6.294,-24.822C-6.896,-26.984 -7.786,-29.149 -7.787,-31.335C-7.787,-33.821 -5.888,-35.598 -5.479,-37.935C-5.476,-37.952 -5.472,-37.97 -5.469,-37.989C-5.783,-38.562 -6.104,-39.077 -6.416,-39.56C-6.461,-39.63 -6.506,-39.698 -6.55,-39.766M-3.3,-32.069C-3.46,-30.948 -3.573,-29.805 -3.622,-28.661C-3.703,-26.762 -3.607,-24.862 -3.239,-23.06C-3.029,-24.132 -2.892,-25.201 -2.832,-26.273C-2.726,-28.185 -2.87,-30.106 -3.3,-32.069M0.83,-22.602C0.591,-22.202 0.5,-21.74 0.741,-21.129C0.863,-20.82 1.094,-20.752 1.347,-20.667C1.192,-21.316 1.019,-21.96 0.83,-22.602M-13.542,-29.525C-14.11,-28.319 -14.823,-27.099 -15.538,-25.856C-16.724,-23.793 -17.917,-21.664 -18.447,-19.419C-18.042,-20.053 -17.617,-20.683 -17.177,-21.251C-16.43,-22.215 -15.325,-22.585 -14.86,-23.795C-14.385,-25.033 -13.656,-27.779 -13.542,-29.525M-10.977,-24.62C-11.085,-24.499 -11.188,-24.379 -11.275,-24.256C-11.759,-23.583 -12.095,-22.901 -12.665,-22.35C-12.609,-21.45 -12.47,-20.555 -12.305,-19.662C-12.276,-19.508 -12.247,-19.353 -12.218,-19.199C-11.784,-20.501 -11.404,-21.813 -11.171,-23.147C-11.085,-23.635 -11.019,-24.126 -10.977,-24.62M-5.352,-22.44C-5.206,-21.993 -5.074,-21.536 -4.955,-21.076C-4.751,-20.281 -4.589,-19.476 -4.477,-18.69C-4.053,-19.852 -3.704,-21.001 -3.437,-22.147C-3.506,-22.402 -3.57,-22.664 -3.628,-22.931C-4.022,-24.777 -4.141,-26.729 -4.066,-28.679C-4.008,-30.21 -3.831,-31.739 -3.582,-33.216C-3.774,-33.919 -4.003,-34.628 -4.271,-35.344C-4.905,-34.629 -5.504,-33.975 -5.524,-33.676C-5.561,-33.159 -4.968,-31.541 -4.889,-30.845C-4.848,-30.488 -5.294,-30.152 -5.321,-29.789C-5.357,-29.315 -5.529,-28.002 -5.427,-27.578C-5.338,-27.21 -5.012,-26.911 -4.999,-26.524C-4.981,-26.017 -5.241,-24.877 -5.524,-23.914C-5.437,-23.563 -5.297,-23.199 -5.29,-22.836C-5.288,-22.712 -5.316,-22.576 -5.352,-22.44M-2.441,-28.081C-2.432,-27.47 -2.447,-26.86 -2.488,-26.252C-2.576,-24.96 -2.778,-23.673 -3.085,-22.382C-2.707,-20.897 -2.121,-19.603 -1.467,-18.401C-1.288,-19.093 -1.13,-19.756 -1.025,-20.368C-0.915,-21.006 -0.845,-21.644 -0.78,-22.281C-1.448,-23.68 -1.913,-25.083 -2.122,-26.139C-2.25,-26.786 -2.357,-27.434 -2.441,-28.081M-5.914,-22.938C-6.057,-23.324 -6.209,-23.701 -6.369,-24.063C-6.757,-24.943 -7.248,-25.754 -7.638,-26.619C-7.808,-26.997 -7.958,-27.385 -8.074,-27.794C-8.493,-29.28 -8.837,-31.025 -9.082,-32.867C-9.229,-32.407 -9.37,-31.946 -9.502,-31.483C-9.659,-30.923 -9.805,-30.36 -9.932,-29.792C-9.929,-29.77 -9.926,-29.749 -9.923,-29.728C-9.857,-29.274 -9.494,-28.846 -9.512,-28.388C-9.532,-27.864 -9.962,-27.325 -10.09,-26.819C-10.174,-26.485 -10.018,-26.072 -10.13,-25.769C-10.208,-25.558 -10.338,-25.363 -10.488,-25.175C-10.493,-25.072 -10.499,-24.97 -10.506,-24.868C-10.522,-23.38 -10.398,-21.965 -10.149,-20.57C-9.96,-19.508 -9.698,-18.457 -9.37,-17.396C-8.081,-19.183 -6.746,-20.942 -5.985,-22.592C-5.968,-22.63 -5.95,-22.671 -5.932,-22.716C-5.922,-22.79 -5.916,-22.864 -5.914,-22.938M-14.978,-21.248C-15.833,-20.976 -16.682,-20.654 -17.038,-20.003C-17.353,-19.43 -16.948,-17.362 -16.592,-15.56C-16.421,-16.642 -16.145,-17.779 -15.802,-18.899C-15.558,-19.698 -15.278,-20.49 -14.978,-21.248M-10.846,-22.485C-11.139,-21.093 -11.576,-19.726 -12.055,-18.366C-11.832,-17.23 -11.612,-16.096 -11.516,-14.963C-11.495,-14.72 -11.479,-14.477 -11.472,-14.234C-10.947,-15.152 -10.315,-16.075 -9.66,-16.993C-10.044,-18.165 -10.35,-19.322 -10.565,-20.494C-10.688,-21.151 -10.781,-21.813 -10.846,-22.485M-0.402,-21.533C-0.448,-21.119 -0.502,-20.705 -0.573,-20.291C-0.703,-19.532 -0.913,-18.697 -1.146,-17.824C-1.034,-17.631 -0.922,-17.439 -0.81,-17.248C0.143,-15.644 1.14,-14.153 1.826,-12.516C1.889,-12.873 1.937,-13.235 1.969,-13.602C2.115,-15.255 2.026,-16.866 1.783,-18.449C0.943,-19.303 0.205,-20.396 -0.402,-21.533M-13.059,-22.021C-13.098,-21.992 -13.139,-21.965 -13.18,-21.938C-13.499,-21.729 -13.939,-21.575 -14.411,-21.426C-14.759,-20.574 -15.081,-19.674 -15.361,-18.764C-15.709,-17.632 -15.99,-16.486 -16.171,-15.398C-16.238,-14.99 -16.293,-14.59 -16.33,-14.203C-16.238,-13.692 -16.174,-13.263 -16.166,-12.982C-16.161,-12.808 -16.23,-12.431 -16.332,-12.008C-16.331,-11.997 -16.329,-11.987 -16.328,-11.977C-16.19,-10.905 -15.864,-9.859 -15.422,-8.86C-15.335,-8.663 -15.243,-8.468 -15.147,-8.274C-15.076,-10.704 -14.379,-13.048 -13.566,-15.378C-13.207,-16.407 -12.826,-17.433 -12.469,-18.464C-12.707,-19.623 -12.945,-20.785 -13.053,-21.956L-13.059,-22.021ZM-12.306,-17.667C-12.598,-16.859 -12.898,-16.052 -13.186,-15.243C-14.072,-12.749 -14.834,-10.24 -14.803,-7.615C-14.657,-7.352 -14.506,-7.093 -14.35,-6.84C-14.131,-7.237 -13.898,-7.633 -13.666,-8.033C-13.302,-8.658 -12.938,-9.295 -12.63,-9.968C-12.735,-10.243 -12.814,-10.525 -12.77,-10.839C-12.642,-11.746 -12.293,-12.672 -11.813,-13.606C-11.8,-14.961 -12.033,-16.312 -12.306,-17.667M-14.783,-7.093C-14.762,-6.796 -14.721,-6.514 -14.663,-6.245C-14.602,-6.367 -14.538,-6.489 -14.474,-6.612C-14.579,-6.77 -14.683,-6.93 -14.783,-7.093M-1.274,-17.341C-1.63,-16.026 -2.011,-14.646 -2.229,-13.335C-2.405,-12.272 -2.477,-11.255 -2.325,-10.359C-2.095,-8.969 -1.643,-7.676 -1.125,-6.415C-1.055,-6.243 -0.983,-6.072 -0.91,-5.902C-0.394,-6.743 0.087,-7.601 0.503,-8.484C1.032,-9.605 1.458,-10.766 1.722,-11.982C1.026,-13.766 -0.069,-15.35 -1.11,-17.068C-1.165,-17.158 -1.221,-17.25 -1.274,-17.341M-8.762,-14.554C-9.693,-12.998 -10.441,-11.396 -10.268,-9.679C-10.069,-7.73 -8.694,-6.54 -7.171,-5.44C-7.156,-5.519 -7.142,-5.598 -7.128,-5.677C-6.899,-6.977 -6.792,-8.293 -6.951,-9.645C-7.028,-10.3 -7.228,-10.954 -7.478,-11.601C-7.855,-12.578 -8.347,-13.536 -8.72,-14.45C-8.733,-14.485 -8.748,-14.52 -8.762,-14.554M-5.54,-21.835C-5.598,-21.733 -5.672,-21.644 -5.753,-21.559C-5.748,-20.977 -5.808,-20.395 -5.953,-19.811C-6.358,-18.187 -7.504,-16.595 -8.517,-14.958C-8.469,-14.836 -8.42,-14.713 -8.371,-14.59C-8.006,-13.672 -7.521,-12.707 -7.152,-11.725C-6.897,-11.049 -6.697,-10.364 -6.623,-9.682C-6.472,-8.298 -6.592,-6.952 -6.839,-5.625C-6.861,-5.501 -6.886,-5.377 -6.911,-5.254C-5.759,-4.435 -4.556,-3.646 -3.736,-2.605C-3.56,-2.558 -3.386,-2.509 -3.216,-2.455C-2.516,-3.457 -1.81,-4.472 -1.152,-5.513C-1.265,-5.763 -1.376,-6.013 -1.483,-6.264C-2.031,-7.547 -2.506,-8.866 -2.759,-10.284C-2.923,-11.224 -2.863,-12.292 -2.681,-13.409C-2.439,-14.882 -1.989,-16.441 -1.6,-17.897C-2.249,-19.032 -2.848,-20.242 -3.279,-21.613C-3.582,-20.486 -3.963,-19.354 -4.414,-18.211C-4.398,-18.078 -4.384,-17.946 -4.371,-17.815C-4.243,-16.462 -4.389,-15.163 -4.66,-13.886C-5.064,-11.986 -5.749,-10.135 -6.21,-8.226C-6.223,-8.172 -6.277,-8.138 -6.331,-8.151C-6.386,-8.163 -6.419,-8.218 -6.406,-8.272C-5.97,-10.183 -5.308,-12.039 -4.926,-13.941C-4.687,-15.13 -4.559,-16.336 -4.667,-17.586C-4.79,-17.291 -4.916,-16.996 -5.048,-16.701C-5.069,-16.65 -5.13,-16.626 -5.181,-16.649C-5.231,-16.671 -5.255,-16.731 -5.232,-16.781C-5.052,-17.206 -4.88,-17.629 -4.717,-18.05C-4.833,-19.007 -5.031,-20.005 -5.295,-20.987C-5.371,-21.271 -5.453,-21.555 -5.54,-21.835M-3.254,-1.875L-3.55,-1.457C-4.207,-0.529 -4.918,0.397 -5.408,1.417C-5.729,2.086 -5.955,2.795 -6.005,3.572C-6.041,4.131 -5.992,4.678 -5.885,5.215C-4.296,3.672 -2.474,2.273 -2.75,-0.254C-2.816,-0.861 -2.994,-1.395 -3.254,-1.875M3.753,-17.044C3.236,-17.261 2.742,-17.585 2.275,-17.987C2.457,-16.54 2.505,-15.07 2.363,-13.566C2.309,-12.98 2.214,-12.408 2.086,-11.847C2.113,-11.771 2.139,-11.695 2.165,-11.617C2.911,-9.368 3.004,-6.783 1.606,-3.269C1.586,-3.218 1.527,-3.192 1.476,-3.212C1.424,-3.233 1.398,-3.291 1.419,-3.343C2.711,-6.694 2.647,-9.174 1.956,-11.323C1.679,-10.29 1.291,-9.295 0.826,-8.329C0.364,-7.369 -0.173,-6.438 -0.749,-5.528C-0.039,-3.889 0.728,-2.285 1.219,-0.589C1.625,0.814 1.844,2.281 1.691,3.882C1.687,3.938 1.637,3.979 1.582,3.974C1.526,3.969 1.485,3.92 1.49,3.865C1.611,2.293 1.369,0.861 0.946,-0.507C0.453,-2.106 -0.288,-3.615 -0.989,-5.153C-1.607,-4.201 -2.263,-3.271 -2.915,-2.352C-1.951,-2 -1.13,-1.439 -0.597,-0.175C0.54,2.519 -2.529,4.821 -3.887,6.783C-4.203,7.241 -4.079,7.915 -4.394,8.363C-4.457,8.453 -4.527,8.53 -4.602,8.597C-4.533,8.737 -4.464,8.876 -4.396,9.014C-4.371,9.064 -4.391,9.124 -4.44,9.149C-4.49,9.174 -4.551,9.154 -4.576,9.104C-4.639,8.98 -4.702,8.855 -4.766,8.729C-5.182,9.029 -5.669,9.175 -5.86,9.825C-6.179,10.902 -4.887,11.165 -4.395,11.89C-3.959,12.532 -4.228,13.503 -3.871,14.067C-3.593,14.507 -5.339,13.142 -5.714,12.79C-7.123,11.463 -8.559,10.063 -7.864,7.977C-7.531,6.976 -6.847,6.17 -6.084,5.41C-6.222,4.806 -6.29,4.189 -6.255,3.557C-6.21,2.745 -5.98,2.002 -5.651,1.302C-5.163,0.264 -4.452,-0.681 -3.793,-1.628C-3.67,-1.805 -3.546,-1.983 -3.421,-2.161C-3.519,-2.314 -3.624,-2.462 -3.736,-2.605C-4.408,-2.785 -5.123,-2.934 -5.841,-3.19C-6.266,-3.341 -6.453,-3.83 -6.89,-3.955C-6.989,-3.984 -7.09,-4.003 -7.191,-4.015C-7.81,-1.511 -8.663,0.961 -8.711,3.556C-8.711,3.612 -8.757,3.657 -8.813,3.656C-8.868,3.655 -8.913,3.609 -8.912,3.553C-8.891,0.958 -8.066,-1.524 -7.473,-4.034C-8.05,-4.045 -8.652,-3.915 -9.226,-4.079C-9.676,-4.209 -9.645,-4.68 -9.92,-4.963C-11.425,-6.504 -12.074,-6.599 -12.309,-8.968C-12.33,-9.179 -12.396,-9.379 -12.473,-9.574C-12.761,-8.991 -13.086,-8.433 -13.412,-7.884C-13.675,-7.443 -13.938,-7.008 -14.18,-6.571C-14.058,-6.38 -13.934,-6.192 -13.807,-6.007C-13.774,-5.961 -13.785,-5.898 -13.831,-5.866C-13.877,-5.834 -13.939,-5.844 -13.972,-5.89C-14.082,-6.042 -14.191,-6.197 -14.299,-6.353C-14.391,-6.183 -14.478,-6.012 -14.562,-5.84C-14.211,-4.633 -13.522,-3.698 -12.809,-2.861C-12,-1.911 -11.159,-1.081 -10.705,-0.135C-10.396,0.51 -10.261,1.207 -10.428,2.03C-10.683,3.29 -12.215,4.553 -13.567,4.975C-14.273,5.196 -14.929,5.183 -15.337,4.853C-15.61,4.633 -15.781,4.27 -15.78,3.728C-15.781,3.673 -15.735,3.627 -15.68,3.627C-15.624,3.627 -15.579,3.672 -15.579,3.728C-15.575,4.189 -15.439,4.502 -15.205,4.688C-14.841,4.978 -14.259,4.96 -13.636,4.76C-12.365,4.352 -10.915,3.168 -10.685,1.979C-10.537,1.22 -10.667,0.579 -10.957,-0.013C-11.41,-0.935 -12.244,-1.737 -13.043,-2.66C-13.72,-3.442 -14.371,-4.307 -14.766,-5.39C-15.041,-4.741 -15.234,-4.072 -15.283,-3.356C-15.362,-2.189 -15.057,-0.901 -14.102,0.625C-14.072,0.672 -14.086,0.734 -14.133,0.764C-14.18,0.794 -14.242,0.78 -14.272,0.733C-15.275,-0.834 -15.598,-2.165 -15.526,-3.371C-15.478,-4.218 -15.232,-5.004 -14.89,-5.769C-15.03,-6.247 -15.12,-6.766 -15.143,-7.336C-15.148,-7.462 -15.151,-7.587 -15.152,-7.712C-15.343,-8.047 -15.522,-8.389 -15.688,-8.738C-16.05,-9.501 -16.343,-10.295 -16.537,-11.109L-16.563,-11.154C-16.699,-10.708 -16.841,-10.324 -16.939,-10.191C-17.446,-9.509 -18.896,-8.871 -19.049,-7.947C-19.637,-4.369 -17.219,-3.908 -16.893,-0.921C-16.638,1.408 -21.416,4.369 -23.01,5.494C-23.67,5.961 -25.6,6.886 -25.656,6.851C-26.276,6.471 -23.709,4.27 -23.63,4.198C-21.845,2.6 -20.188,1.469 -19.827,-1.177C-19.496,-3.609 -22.803,-5.419 -22.424,-8.348C-22.173,-10.292 -20.387,-11.368 -19.781,-13.096C-19.154,-14.885 -20.547,-16.012 -19.275,-18.086C-19.148,-18.293 -19.02,-18.504 -18.888,-18.716C-18.87,-18.861 -18.849,-19.005 -18.82,-19.147C-18.353,-21.555 -17.114,-23.84 -15.874,-26.047C-15.031,-27.546 -14.189,-29.009 -13.598,-30.453C-13.588,-30.477 -13.578,-30.501 -13.568,-30.526C-13.716,-31.386 -14.261,-32.299 -14.141,-33.143C-14.06,-33.709 -13.783,-34.224 -13.449,-34.719C-13.521,-34.874 -13.595,-35.029 -13.668,-35.184C-14.241,-36.402 -14.836,-37.619 -15.378,-38.85C-15.609,-38.502 -15.842,-38.167 -16.073,-37.841C-17.065,-36.438 -18.028,-35.185 -18.688,-33.66C-19.403,-32.007 -19.765,-30.036 -19.432,-27.216C-19.425,-27.161 -19.464,-27.11 -19.52,-27.103C-19.574,-27.096 -19.625,-27.135 -19.632,-27.19C-20.027,-30.066 -19.693,-32.086 -18.993,-33.789C-18.352,-35.348 -17.401,-36.641 -16.412,-38.077C-16.137,-38.477 -15.857,-38.888 -15.582,-39.321C-15.938,-40.154 -16.268,-40.994 -16.546,-41.844C-16.659,-41.629 -16.769,-41.41 -16.874,-41.188C-17.117,-40.673 -17.335,-40.14 -17.511,-39.577C-17.525,-39.524 -17.582,-39.493 -17.636,-39.509C-17.688,-39.525 -17.72,-39.58 -17.704,-39.634C-17.467,-40.508 -17.132,-41.319 -16.75,-42.1C-16.725,-42.15 -16.7,-42.2 -16.675,-42.251C-16.768,-42.551 -16.853,-42.851 -16.93,-43.154C-17.033,-43.552 -17.122,-43.955 -17.196,-44.359C-17.527,-43.871 -17.87,-43.415 -18.208,-42.974C-19.043,-41.885 -19.841,-40.894 -20.276,-39.728C-20.768,-38.414 -20.795,-36.883 -19.912,-34.75C-19.891,-34.698 -19.914,-34.639 -19.965,-34.617C-20.017,-34.595 -20.076,-34.619 -20.098,-34.67C-21.071,-36.866 -21.069,-38.463 -20.591,-39.842C-20.171,-41.05 -19.382,-42.093 -18.542,-43.226C-18.127,-43.785 -17.699,-44.367 -17.302,-45.006C-17.552,-46.78 -17.492,-48.614 -16.946,-50.539C-16.868,-50.816 -16.789,-51.09 -16.705,-51.361C-16.915,-51.356 -17.125,-51.348 -17.335,-51.335L-17.332,-51.278C-20.665,-51.204 -21.876,-52.343 -20.295,-56.184C-18.556,-60.413 -13.797,-64.811 -7.373,-65.048C0.843,-65.35 4.412,-61.323 6.503,-58.643C7.618,-57.215 8.836,-54.022 6.856,-52.56C6.292,-52.143 5.523,-52.002 4.769,-51.894C5.152,-51.038 5.566,-50.223 5.983,-49.422C7.094,-47.287 8.22,-45.254 8.851,-42.837C9.316,-41.054 9.513,-39.063 9.237,-36.674C8.888,-33.703 7.359,-32.058 5.816,-30.658C5.802,-30.645 5.788,-30.632 5.772,-30.619C5.668,-30.275 5.556,-29.931 5.437,-29.586C6.071,-28.874 6.72,-28.133 7.272,-27.285C7.883,-26.35 8.376,-25.285 8.603,-23.99C8.613,-23.935 8.577,-23.883 8.522,-23.873C8.468,-23.863 8.415,-23.899 8.404,-23.954C8.163,-25.211 7.664,-26.239 7.055,-27.141C6.53,-27.918 5.922,-28.601 5.322,-29.256C4.84,-27.894 4.269,-26.525 3.664,-25.132C3.642,-25.08 3.583,-25.056 3.531,-25.078C3.48,-25.1 3.456,-25.159 3.478,-25.211C4.079,-26.655 4.645,-28.073 5.112,-29.484C5.021,-29.584 4.928,-29.684 4.836,-29.784C3.996,-29.028 3.238,-28.272 2.796,-27.3C2.581,-26.828 2.442,-26.305 2.404,-25.707C2.416,-25.454 2.421,-25.199 2.408,-24.966C2.418,-24.835 2.432,-24.7 2.449,-24.563C2.684,-22.768 3.999,-21.589 5.588,-21.036C7.209,-20.472 9.118,-20.555 10.495,-21.313C10.544,-21.34 10.605,-21.322 10.632,-21.274C10.659,-21.225 10.642,-21.164 10.594,-21.137C9.174,-20.332 7.192,-20.219 5.502,-20.784C3.917,-21.314 2.592,-22.438 2.197,-24.133L2.193,-24.129C1.893,-23.738 1.489,-23.404 1.164,-23.042C1.424,-22.168 1.658,-21.289 1.854,-20.403C2.14,-20.15 2.313,-19.761 2.673,-19.618C2.913,-19.522 3.606,-19.545 3.712,-19.272C3.862,-18.884 3.702,-18.468 4.013,-18.109C4.238,-17.848 4.632,-17.892 4.835,-17.583C4.969,-17.379 5.042,-17.178 5.071,-16.981C5.118,-16.904 5.163,-16.823 5.207,-16.741C5.499,-16.748 5.774,-16.816 6.021,-17.004C6.908,-17.683 7.296,-18.813 8.155,-19.531C9.976,-21.054 11.588,-19.647 11.539,-17.594C11.525,-17.024 11.397,-16.45 11.231,-15.905C10.96,-15.014 10.573,-14.188 10.224,-13.328C9.609,-11.817 8.964,-10.278 8.485,-8.718C8.015,-7.183 7.549,-5.702 7.523,-4.081C7.521,-3.898 7.724,-2.761 7.611,-2.624C7.603,-2.613 7.319,-2.86 7.286,-2.891C6.86,-3.3 6.062,-4.341 6.12,-4.964C6.16,-5.397 6.168,-7.25 6.194,-7.325C6.414,-7.952 7.287,-9.033 7.23,-9.675C7.189,-10.139 7.229,-10.715 7.062,-11.155C6.897,-11.59 6.269,-11.876 6.352,-12.365C6.45,-12.943 7.284,-13.619 7.244,-14.197C7.239,-14.256 6.904,-14.188 6.88,-14.182C6.191,-14.016 5.489,-12.789 4.806,-13.559C4.249,-14.185 4.456,-14.806 4.714,-15.443C4.629,-15.735 4.533,-16.018 4.392,-16.3C4.254,-16.573 4.008,-16.844 3.753,-17.044" style="fill:rgb(31,47,59);"/>
        </g>
    </g>
</svg>
