<?xml version="1.0" encoding="UTF-8" standalone="no"?>
<!DOCTYPE svg PUBLIC "-//W3C//DTD SVG 1.1//EN" "http://www.w3.org/Graphics/SVG/1.1/DTD/svg11.dtd">
<svg width="100%" height="100%" viewBox="0 0 107 213" version="1.1" xmlns="http://www.w3.org/2000/svg" xmlns:xlink="http://www.w3.org/1999/xlink" xml:space="preserve" xmlns:serif="http://www.serif.com/" style="fill-rule:evenodd;clip-rule:evenodd;stroke-linejoin:round;stroke-miterlimit:2;">
    <g transform="matrix(1,0,0,1,-798,-1318)">
        <g transform="matrix(2.67968,0,0,2.67968,868.876,1475.8)">
            <path d="M0,-38.801C-0.234,-38.783 -0.469,-38.768 -0.703,-38.757C-0.585,-38.415 -0.475,-38.108 -0.389,-37.864C-0.212,-37.36 -0.03,-36.855 0.15,-36.348C0.009,-37.162 -0.049,-37.983 0,-38.801M0.617,-38.851L0.497,-38.841L0.407,-38.834C0.347,-37.861 0.445,-36.884 0.652,-35.919C0.671,-35.835 0.689,-35.752 0.709,-35.668C0.633,-36.159 0.608,-36.655 0.611,-37.152C0.616,-37.72 0.657,-38.29 0.697,-38.858L0.617,-38.851ZM-16.609,-39.869C-15.495,-38.099 -14.879,-36.371 -14.623,-34.563C-14.48,-33.56 -14.45,-32.531 -14.508,-31.457C-14.189,-32.416 -13.982,-33.413 -13.916,-34.408C-13.788,-36.315 -14.176,-38.213 -15.295,-39.79C-15.733,-39.813 -16.172,-39.832 -16.609,-39.869M-1.014,-38.41C-1.269,-37.296 -1.213,-36.244 -0.963,-35.227C-0.536,-33.49 0.451,-31.853 1.435,-30.18C1.297,-31.134 1.077,-32.073 0.812,-33.002C0.357,-34.603 -0.23,-36.172 -0.774,-37.729C-0.842,-37.921 -0.924,-38.153 -1.014,-38.41M5.838,-39.812C5.602,-39.62 5.35,-39.432 5.075,-39.246L4.929,-39.236C4.547,-39.015 4.054,-38.951 3.544,-38.94C3.506,-38.712 3.473,-38.482 3.447,-38.251C3.356,-37.426 3.447,-36.552 3.638,-35.681C3.922,-34.374 4.429,-33.073 4.891,-31.946C5.113,-31.401 5.378,-30.893 5.667,-30.406C5.716,-30.324 5.765,-30.243 5.814,-30.162C6.248,-31.734 6.449,-33.49 6.427,-35.246C6.406,-36.812 6.209,-38.378 5.838,-39.812M3.134,-38.94C2.71,-38.948 2.294,-38.972 1.939,-38.952C1.912,-38.951 1.884,-38.949 1.856,-38.947C1.856,-38.029 1.964,-37.104 2.162,-36.197C2.497,-34.672 3.091,-33.198 3.88,-31.894C4.393,-31.038 5.017,-30.274 5.611,-29.492C5.627,-29.538 5.642,-29.586 5.657,-29.633C5.538,-29.818 5.423,-30.005 5.31,-30.195C5.011,-30.699 4.737,-31.224 4.507,-31.789C4.038,-32.937 3.524,-34.263 3.236,-35.594C3.038,-36.51 2.946,-37.428 3.043,-38.296C3.067,-38.512 3.098,-38.727 3.134,-38.94M-4.904,-31.134C-5.029,-30.993 -5.152,-30.851 -5.239,-30.692C-5.224,-30.265 -5.215,-29.838 -5.216,-29.411C-5.186,-29.301 -5.158,-29.191 -5.141,-29.077C-5.013,-29.757 -4.931,-30.447 -4.904,-31.134M-10.599,-38.614C-10.489,-38.229 -10.405,-37.817 -10.344,-37.389C-10.07,-35.477 -10.229,-33.273 -10.425,-32.02C-10.621,-30.767 -11.017,-29.589 -11.506,-28.446C-11.515,-28.426 -11.523,-28.407 -11.531,-28.387C-11.355,-28.705 -11.185,-29.025 -11.021,-29.348C-10.037,-32.507 -8.743,-35.692 -10.599,-38.614M-18.346,-40.185C-17.291,-37.912 -16.56,-35.611 -16.248,-33.264C-16.017,-31.516 -16.018,-29.743 -16.294,-27.939C-16.239,-28.014 -16.186,-28.09 -16.133,-28.166C-15.718,-28.767 -15.35,-29.421 -15.036,-30.108C-14.859,-31.663 -14.835,-33.109 -15.031,-34.506C-15.291,-36.35 -15.936,-38.11 -17.121,-39.922C-17.274,-39.942 -17.428,-39.965 -17.581,-39.991C-17.84,-40.037 -18.095,-40.102 -18.346,-40.185M-14.787,-39.76C-13.745,-38.162 -13.373,-36.277 -13.502,-34.38C-13.579,-33.239 -13.837,-32.094 -14.238,-31.01C-14.354,-30.695 -14.483,-30.384 -14.624,-30.081C-14.705,-29.365 -14.818,-28.627 -14.957,-27.86C-14.986,-27.699 -15.019,-27.539 -15.053,-27.379C-14.784,-27.731 -14.531,-28.091 -14.294,-28.461C-13.632,-29.491 -13.091,-30.597 -12.695,-31.817C-12.381,-32.774 -12.202,-33.666 -12.185,-34.555C-12.167,-35.447 -12.313,-36.335 -12.651,-37.281C-12.91,-38.009 -13.157,-38.684 -13.54,-39.283C-13.623,-39.413 -13.712,-39.539 -13.81,-39.662C-13.843,-39.667 -13.876,-39.671 -13.909,-39.676C-14.201,-39.714 -14.494,-39.74 -14.787,-39.76M1.451,-38.92C1.335,-38.911 1.218,-38.902 1.101,-38.892C1.062,-38.312 1.019,-37.729 1.016,-37.149C1.013,-36.604 1.044,-36.061 1.146,-35.524C1.286,-34.801 1.52,-34.088 1.802,-33.382C2.461,-31.734 3.38,-30.126 3.991,-28.526C4.069,-28.32 4.146,-28.113 4.22,-27.905C4.375,-27.639 4.533,-27.379 4.699,-27.125L4.712,-27.157C4.964,-27.772 5.215,-28.388 5.443,-29.012L5.457,-29.05C4.803,-29.912 4.099,-30.741 3.526,-31.68C2.714,-33.022 2.101,-34.539 1.76,-36.109C1.558,-37.036 1.45,-37.981 1.451,-38.92M-15.185,-28.999C-15.393,-28.641 -15.614,-28.296 -15.85,-27.968C-16.027,-27.72 -16.216,-27.481 -16.413,-27.246C-16.432,-27.148 -16.451,-27.05 -16.472,-26.951C-16.586,-26.403 -16.726,-25.851 -16.894,-25.297C-16.81,-25.381 -16.726,-25.466 -16.642,-25.552C-16.291,-25.909 -15.958,-26.273 -15.643,-26.646C-15.536,-27.072 -15.44,-27.501 -15.363,-27.934C-15.298,-28.295 -15.238,-28.65 -15.185,-28.999M1.416,-32.358C1.628,-31.524 1.798,-30.68 1.9,-29.825C1.922,-29.643 1.94,-29.462 1.958,-29.28C2.748,-27.896 3.471,-26.475 3.839,-24.949L3.854,-24.988C4.002,-25.395 4.159,-25.798 4.321,-26.199L4.333,-26.23C4.171,-26.771 3.994,-27.308 3.803,-27.841C3.589,-28.204 3.379,-28.577 3.161,-28.958C2.557,-30.023 1.941,-31.167 1.416,-32.358M5.744,-28.639C5.518,-28.044 5.272,-27.456 5.028,-26.867L4.97,-26.727C4.982,-26.709 4.995,-26.692 5.008,-26.674C5.369,-26.172 5.776,-25.697 6.276,-25.256C6.659,-24.916 7.048,-24.634 7.436,-24.386C7.396,-25.027 7.281,-25.661 7.062,-26.286C6.845,-26.905 6.546,-27.463 6.207,-27.99C6.062,-28.217 5.908,-28.438 5.75,-28.655L5.744,-28.639ZM5.934,-29.155C5.929,-29.141 5.924,-29.127 5.919,-29.113L5.911,-29.091C6.126,-28.798 6.333,-28.501 6.526,-28.193C6.874,-27.637 7.174,-27.049 7.391,-26.399C7.632,-25.671 7.74,-24.933 7.755,-24.19C8.351,-23.836 8.939,-23.552 9.495,-23.264C8.886,-24.541 8.217,-25.749 7.576,-26.775C7.053,-27.615 6.481,-28.393 5.946,-29.192L5.934,-29.155ZM-13.24,-39.564C-13.227,-39.544 -13.213,-39.523 -13.199,-39.502C-12.798,-38.879 -12.536,-38.177 -12.265,-37.42C-11.907,-36.423 -11.752,-35.487 -11.77,-34.547C-11.788,-33.619 -11.975,-32.687 -12.304,-31.689C-12.721,-30.438 -13.281,-29.303 -13.975,-28.253C-14.356,-27.675 -14.778,-27.122 -15.237,-26.589C-15.528,-25.43 -15.893,-24.289 -16.167,-23.124C-16.324,-22.457 -16.453,-21.782 -16.517,-21.091C-16.566,-20.559 -16.572,-20.028 -16.55,-19.497C-16.271,-20.151 -15.969,-20.782 -15.648,-21.397C-15.098,-22.457 -14.499,-23.468 -13.894,-24.457C-13.229,-25.843 -12.487,-27.2 -11.887,-28.609C-11.413,-29.721 -11.025,-30.865 -10.834,-32.084C-10.642,-33.308 -10.483,-35.462 -10.747,-37.332C-10.843,-38.008 -10.991,-38.647 -11.217,-39.187C-11.9,-39.263 -12.566,-39.433 -13.24,-39.564M3.729,-23.378C3.519,-22.641 3.359,-21.888 3.296,-21.123C3.282,-20.965 3.273,-20.806 3.269,-20.647C3.266,-20.533 3.264,-20.419 3.268,-20.305C3.271,-20.162 3.284,-20.02 3.305,-19.879C3.349,-19.57 3.431,-19.266 3.539,-18.973C3.619,-18.756 3.715,-18.546 3.818,-18.339L3.821,-18.334C3.964,-19.235 4.002,-20.191 3.963,-21.147C3.933,-21.909 3.853,-22.672 3.737,-23.404L3.729,-23.378ZM-1.886,-38.753C-2.124,-38.081 -2.167,-37.44 -2.207,-36.659C-2.253,-35.752 -2.416,-34.773 -2.115,-33.889C-1.288,-31.466 0.891,-29.923 1.384,-27.288C1.733,-25.424 1.294,-23.855 0.966,-22.037C0.731,-20.734 0.633,-19.314 0.647,-17.96C0.691,-18.142 0.731,-18.326 0.766,-18.51C1.172,-20.707 1.508,-22.988 1.619,-25.261C1.683,-26.566 1.674,-27.869 1.555,-29.153C1.422,-29.384 1.287,-29.613 1.152,-29.843C0.122,-31.594 -0.918,-33.311 -1.362,-35.13C-1.643,-36.28 -1.687,-37.473 -1.347,-38.741C-1.525,-38.741 -1.705,-38.745 -1.886,-38.753M-11.139,-28.242C-11.754,-27.125 -12.437,-26.03 -13.126,-24.918C-13.277,-24.674 -13.429,-24.429 -13.579,-24.183C-13.643,-24.052 -13.705,-23.921 -13.767,-23.79C-14.249,-22.76 -14.682,-21.71 -14.971,-20.604C-15.146,-19.937 -15.216,-19.269 -15.235,-18.6C-15.249,-18.15 -15.239,-17.699 -15.223,-17.248C-15.078,-17.667 -14.92,-18.082 -14.745,-18.493C-13.621,-21.122 -11.929,-24.228 -11.119,-26.944C-10.989,-27.376 -11.088,-27.809 -11.139,-28.242M4.506,-25.591C4.325,-25.136 4.152,-24.679 3.994,-24.217L3.992,-24.211C4.172,-23.242 4.294,-22.201 4.324,-21.159C4.356,-20.04 4.283,-18.92 4.066,-17.887L4.066,-17.886C4.303,-17.485 4.564,-17.098 4.833,-16.717C5.057,-16.398 5.284,-16.083 5.509,-15.765L5.544,-15.716C5.568,-15.894 5.59,-16.072 5.609,-16.25C5.76,-17.639 5.769,-19.04 5.571,-20.449C5.385,-21.802 5.135,-23.147 4.811,-24.472C4.718,-24.853 4.619,-25.232 4.513,-25.61L4.506,-25.591ZM-15.039,-21.691C-15.125,-21.532 -15.211,-21.373 -15.296,-21.213C-15.729,-20.39 -16.135,-19.538 -16.492,-18.642C-16.368,-17.285 -16.115,-15.935 -15.981,-14.579C-15.838,-15.181 -15.682,-15.78 -15.504,-16.374C-15.547,-17.12 -15.597,-17.864 -15.583,-18.608C-15.57,-19.304 -15.503,-20 -15.329,-20.696C-15.244,-21.032 -15.146,-21.364 -15.039,-21.691M-6.074,-23.556C-6.618,-21.768 -7.323,-20.02 -7.857,-18.231C-8.136,-17.298 -8.368,-16.355 -8.503,-15.386C-8.616,-14.583 -8.615,-13.788 -8.553,-12.999C-8.519,-12.571 -8.467,-12.144 -8.404,-11.719C-8.377,-11.769 -8.35,-11.82 -8.323,-11.871C-7.604,-13.224 -7.029,-14.624 -6.625,-16.068C-6.22,-17.513 -5.985,-19.003 -5.95,-20.535C-5.935,-21.232 -5.876,-21.93 -5.924,-22.618C-5.946,-22.933 -5.991,-23.246 -6.074,-23.556M2.029,-28.308C2.084,-27.292 2.077,-26.267 2.021,-25.24C1.896,-22.951 1.532,-20.656 1.104,-18.447C0.997,-17.903 0.836,-17.371 0.688,-16.836C0.835,-14.839 1.523,-12.933 1.79,-10.95C1.835,-11.159 1.884,-11.367 1.935,-11.574C2.44,-13.623 3.228,-15.605 3.693,-17.668C3.707,-17.727 3.72,-17.787 3.732,-17.847L3.729,-17.852C3.578,-18.112 3.439,-18.377 3.32,-18.653C3.169,-19.004 3.052,-19.37 2.984,-19.747C2.954,-19.92 2.935,-20.095 2.926,-20.27C2.918,-20.427 2.919,-20.584 2.923,-20.74C2.929,-20.933 2.939,-21.126 2.957,-21.318C3.044,-22.305 3.28,-23.272 3.585,-24.213L3.59,-24.228C3.563,-24.361 3.535,-24.492 3.507,-24.622C3.225,-25.917 2.67,-27.131 2.029,-28.308M-5.562,-25.549C-5.612,-25.293 -5.669,-25.035 -5.733,-24.778C-5.784,-24.573 -5.839,-24.369 -5.896,-24.165C-5.863,-24.143 -5.837,-24.111 -5.821,-24.072C-5.643,-23.604 -5.558,-23.128 -5.523,-22.647C-5.473,-21.947 -5.529,-21.236 -5.544,-20.526C-5.577,-18.959 -5.814,-17.435 -6.228,-15.957C-6.638,-14.484 -7.225,-13.057 -7.957,-11.676C-8.068,-11.467 -8.183,-11.258 -8.298,-11.05C-8.268,-10.87 -8.236,-10.691 -8.205,-10.511C-6.868,-12.865 -5.306,-15.098 -4,-16.912C-4.003,-16.957 -4.004,-17.003 -4.004,-17.048C-4.006,-17.739 -3.701,-18.396 -3.657,-19.083C-3.623,-19.616 -3.901,-20.122 -3.948,-20.65C-3.99,-21.132 -3.851,-21.605 -3.887,-22.088C-3.919,-22.523 -4.313,-22.77 -4.581,-23.057C-5.269,-23.794 -4.958,-24.335 -5.3,-25.158C-5.355,-25.293 -5.456,-25.421 -5.562,-25.549M-16.755,-17.947C-16.833,-17.731 -16.908,-17.511 -16.979,-17.289C-17.261,-16.421 -17.533,-15.474 -17.693,-14.524C-17.8,-13.891 -17.856,-13.257 -17.83,-12.644C-17.804,-12.031 -17.665,-11.43 -17.598,-10.822C-17.567,-10.553 -17.551,-10.283 -17.562,-10.01C-17.581,-9.524 -17.61,-9.039 -17.652,-8.555C-17.601,-8.638 -17.55,-8.722 -17.5,-8.807C-17.389,-8.995 -17.278,-9.188 -17.171,-9.384C-16.792,-10.798 -16.511,-12.239 -16.191,-13.672C-16.281,-15.102 -16.568,-16.522 -16.755,-17.947M-17.715,-7.722L-17.742,-7.684L-17.747,-7.646L-17.749,-7.627L-17.708,-7.732L-17.715,-7.722ZM-5.712,-27.472C-6.413,-26.382 -7.54,-24.944 -7.746,-24.264C-7.874,-23.844 -7.726,-23.375 -7.797,-22.943C-7.887,-22.392 -8.314,-21.994 -8.439,-21.462C-8.591,-20.818 -8.384,-20.157 -8.548,-19.519C-8.702,-18.918 -9.292,-18.506 -9.381,-17.898C-9.479,-17.225 -9.189,-16.604 -9.467,-15.945C-9.695,-15.401 -10.25,-15.061 -10.484,-14.53C-10.653,-14.146 -10.409,-13.718 -10.542,-13.307C-10.624,-13.052 -10.786,-12.851 -10.961,-12.657C-11.053,-10.598 -11.042,-8.53 -11.132,-6.468L-11.126,-6.484C-10.907,-7.056 -10.651,-7.612 -10.374,-8.159C-9.835,-9.22 -9.216,-10.246 -8.641,-11.286C-8.737,-11.846 -8.82,-12.407 -8.872,-12.972C-8.946,-13.784 -8.955,-14.603 -8.849,-15.433C-8.721,-16.421 -8.495,-17.385 -8.219,-18.337C-7.582,-20.531 -6.678,-22.66 -6.134,-24.877C-6.038,-25.262 -5.959,-25.648 -5.894,-26.032C-5.921,-26.099 -5.938,-26.169 -5.941,-26.241C-5.951,-26.493 -5.864,-26.759 -5.756,-27.021C-5.739,-27.171 -5.725,-27.322 -5.712,-27.472M1.805,-8.728C1.773,-8.2 1.744,-7.671 1.772,-7.135C1.804,-6.563 2.127,-6.081 2.177,-5.521C2.269,-4.504 2.145,-3.459 2.219,-2.433C2.283,-1.556 2.604,0.025 3.403,0.651C3.356,-0.711 3.196,-2.188 2.961,-3.652C2.686,-5.366 2.306,-7.064 1.861,-8.538C1.843,-8.602 1.823,-8.665 1.805,-8.728M-11.396,-12.146C-11.438,-12.083 -11.477,-12.018 -11.509,-11.949C-11.952,-11.02 -12.036,-9.87 -12.489,-8.964C-12.716,-8.512 -13.295,-8.348 -13.509,-7.886C-13.753,-7.356 -13.35,-6.835 -13.638,-6.255C-13.737,-6.055 -14.116,-5.408 -14.481,-4.813C-14.425,-4.302 -14.338,-3.802 -14.227,-3.312C-13.891,-1.824 -13.332,-0.418 -12.698,0.979C-12.669,0.889 -12.639,0.8 -12.609,0.71C-12.513,-0.235 -12.4,-1.176 -12.25,-2.107C-12.091,-3.092 -11.888,-4.065 -11.612,-5.02C-11.586,-5.414 -11.564,-5.808 -11.547,-6.202C-11.458,-8.181 -11.465,-10.168 -11.396,-12.146M-8.524,-10.646C-9.025,-9.76 -9.546,-8.879 -10.008,-7.972C-10.279,-7.439 -10.532,-6.896 -10.748,-6.338C-10.925,-5.88 -11.082,-5.416 -11.22,-4.948C-11.297,-3.913 -11.41,-2.881 -11.586,-1.854C-11.741,-0.949 -11.977,-0.059 -12.268,0.816C-12.301,1.111 -12.333,1.406 -12.365,1.701C-12.159,2.139 -11.949,2.577 -11.739,3.018L-11.714,3.072C-11.703,2.958 -11.69,2.844 -11.676,2.73C-11.55,1.782 -11.341,0.873 -11.071,-0.009C-11.139,-0.384 -11.183,-0.757 -11.205,-1.12C-11.373,-3.873 -10.106,-7.083 -8.425,-10.12C-8.458,-10.296 -8.492,-10.471 -8.524,-10.646M-5.487,-4.976C-5.756,-4.409 -6.642,-4.558 -6.803,-3.878C-6.892,-3.503 -6.636,-3.07 -6.635,-2.688C-6.634,-2.207 -6.94,-1.791 -6.881,-1.297C-6.845,-0.999 -6.643,-0.745 -6.654,-0.445C-6.669,-0.077 -6.933,0.254 -7,0.614C-7.083,1.057 -6.978,1.833 -6.988,2.311C-7.031,4.083 -5.996,4.07 -5.158,4.272C-4.628,1.834 -4.828,-0.284 -5.114,-2.324C-5.239,-3.216 -5.381,-4.093 -5.487,-4.976M-14.827,-4.259C-14.987,-4.007 -15.12,-3.807 -15.191,-3.719C-15.482,-3.359 -15.974,-3.233 -16.176,-2.802C-16.441,-2.237 -16.365,-1.481 -16.497,-0.877C-17.118,1.978 -17.144,2.426 -15.648,4.97C-15.408,5.38 -15.267,5.866 -15.008,6.269C-14.966,6.183 -14.924,6.099 -14.883,6.015C-14.169,4.567 -13.457,3.075 -12.896,1.537C-13.616,-0.012 -14.258,-1.567 -14.632,-3.221C-14.709,-3.562 -14.774,-3.908 -14.827,-4.259M-18.051,-7.271C-18.742,-6.374 -19.515,-5.53 -20.174,-4.617C-20.809,-3.745 -21.387,-2.782 -21.876,-1.777C-22.364,-0.772 -22.763,0.276 -23.028,1.323C-23.382,2.711 -23.437,4.091 -23.341,5.466C-23.288,6.225 -23.188,6.982 -23.067,7.737C-21.747,6.764 -20.723,5.179 -19.944,3.919C-19.905,3.856 -19.867,3.792 -19.829,3.729C-19.867,3.683 -19.903,3.636 -19.934,3.582C-20.14,3.226 -20.143,2.789 -20.392,2.445C-20.7,2.017 -21.255,1.907 -21.427,1.352C-21.658,0.606 -21.118,0.02 -20.891,-0.635C-20.694,-1.197 -21.356,-1.523 -21.069,-2.128C-20.531,-3.264 -19.364,-3.856 -18.869,-5.03C-18.632,-5.593 -18.373,-6.157 -18.125,-6.728C-18.099,-6.908 -18.073,-7.09 -18.051,-7.271M-12.749,2.13C-13.295,3.508 -13.951,4.847 -14.609,6.151C-14.673,6.278 -14.739,6.407 -14.806,6.537C-14.406,7.005 -13.892,7.33 -13.475,7.788C-13.104,5.936 -12.929,4.032 -12.749,2.13M-1.584,-3.806C-1.916,-2.052 -2.33,-0.293 -2.54,1.482C-2.681,2.671 -2.73,3.868 -2.598,5.076C-2.372,7.137 -1.4,8.717 -0.454,10.206C0.174,11.195 0.792,12.145 1.187,13.164C1.187,12.588 1.23,12.019 1.308,11.455C1.542,9.742 2.078,8.072 2.554,6.392C2.966,4.933 3.334,3.467 3.405,1.956C1.521,2.026 -0.511,1.737 -0.785,0.968C-0.921,0.588 -0.758,0.161 -0.79,-0.231C-0.829,-0.698 -1.31,-1.071 -1.399,-1.553C-1.501,-2.095 -1.281,-2.648 -1.403,-3.163C-1.455,-3.382 -1.516,-3.596 -1.584,-3.806M-18.892,-40.396C-21.058,-41.36 -22.687,-43.631 -22.531,-45.998C-22.471,-46.923 -22.202,-47.81 -21.857,-48.666C-21.285,-50.089 -20.425,-51.469 -19.61,-52.766C-18.476,-54.572 -17.062,-56.012 -15.248,-57.151C-13.491,-58.255 -11.442,-58.468 -9.432,-58.688C-5.232,-59.146 -0.228,-59.028 2.869,-55.638C3.808,-54.611 4.54,-53.447 5.302,-52.291C6.359,-50.686 7.962,-49.371 8.893,-47.704C10.305,-45.177 9.688,-43.961 8.013,-42.03C7.386,-41.307 6.835,-40.681 6.177,-40.1L6.186,-40.071C6.446,-39.104 6.624,-38.115 6.729,-37.119C6.816,-36.28 6.853,-35.434 6.838,-34.59C6.824,-33.851 6.771,-33.113 6.677,-32.38C6.561,-31.483 6.379,-30.595 6.12,-29.729L6.11,-29.696C6.697,-28.795 7.342,-27.934 7.928,-26.994C8.656,-25.822 9.423,-24.416 10.096,-22.938C10.46,-22.729 10.805,-22.505 11.119,-22.239C11.953,-21.536 12.593,-20.557 12.876,-18.855C12.885,-18.805 12.853,-18.759 12.803,-18.75C12.754,-18.741 12.707,-18.774 12.698,-18.823C12.395,-20.452 11.771,-21.384 10.958,-22.044C10.746,-22.217 10.521,-22.37 10.286,-22.513C10.499,-22.029 10.7,-21.539 10.886,-21.049C11.445,-19.57 11.861,-18.087 12.021,-16.753C12.258,-14.734 11.691,-12.957 11.037,-11.228C10.376,-9.477 9.625,-7.778 9.589,-5.915C9.563,-4.553 9.921,-3.104 10.974,-1.483C11.214,-1.113 11.489,-0.772 11.786,-0.45C12.234,0.037 12.733,0.479 13.237,0.909C13.275,0.941 13.28,0.998 13.248,1.036C13.216,1.074 13.158,1.079 13.12,1.047C12.605,0.618 12.097,0.176 11.638,-0.312C11.329,-0.639 11.043,-0.987 10.793,-1.364C9.688,-3.024 9.309,-4.514 9.321,-5.918C9.338,-7.814 10.078,-9.553 10.735,-11.341C11.354,-13.024 11.9,-14.751 11.652,-16.708C11.45,-18.32 10.856,-20.149 10.102,-21.921C9.97,-22.232 9.832,-22.541 9.691,-22.846C9.47,-22.962 9.243,-23.073 9.011,-23.187C8.604,-23.386 8.182,-23.591 7.754,-23.826C7.748,-23.529 7.728,-23.231 7.696,-22.932C7.516,-21.223 6.958,-19.513 6.534,-17.892C6.522,-17.844 6.473,-17.815 6.425,-17.827C6.376,-17.839 6.347,-17.888 6.359,-17.936C6.746,-19.552 7.265,-21.26 7.412,-22.96C7.441,-23.306 7.456,-23.653 7.45,-23.999C6.982,-24.273 6.511,-24.593 6.046,-24.99C5.563,-25.405 5.16,-25.849 4.802,-26.32L4.798,-26.311L4.766,-26.232C4.929,-25.682 5.078,-25.128 5.214,-24.571C5.54,-23.231 5.789,-21.872 5.978,-20.506C6.173,-19.062 6.16,-17.627 5.998,-16.206C5.962,-15.887 5.917,-15.569 5.866,-15.251L5.873,-15.24C6.222,-14.726 6.552,-14.199 6.837,-13.647C7.165,-13.011 7.433,-12.343 7.61,-11.649C7.701,-11.297 7.769,-10.94 7.812,-10.579C7.816,-10.551 7.819,-10.522 7.823,-10.493C7.825,-10.474 7.827,-10.454 7.829,-10.435C7.831,-10.416 7.833,-10.397 7.835,-10.377C7.837,-10.359 7.841,-10.34 7.837,-10.321C7.827,-10.275 7.783,-10.243 7.736,-10.249C7.727,-10.25 7.717,-10.253 7.707,-10.258C7.685,-10.269 7.667,-10.291 7.66,-10.316C7.657,-10.329 7.656,-10.344 7.654,-10.358C7.652,-10.377 7.65,-10.396 7.648,-10.414C7.641,-10.48 7.631,-10.545 7.622,-10.611C7.573,-10.943 7.505,-11.273 7.416,-11.597C7.245,-12.22 7.002,-12.822 6.705,-13.395C6.443,-13.903 6.141,-14.389 5.818,-14.862L5.805,-14.883C5.633,-13.916 5.401,-12.958 5.13,-12.009C4.771,-10.763 4.31,-9.525 3.982,-8.259C3.768,-7.426 3.611,-6.581 3.585,-5.714C3.553,-4.636 3.732,-3.63 4.159,-2.762C4.589,-1.885 5.27,-1.15 6.232,-0.623C6.521,-0.466 6.837,-0.338 7.163,-0.277C7.483,-0.216 7.812,-0.22 8.129,-0.326C8.599,-0.484 8.873,-0.905 8.902,-1.319C8.932,-1.739 8.704,-2.152 8.172,-2.275C8.123,-2.286 8.093,-2.335 8.104,-2.384C8.114,-2.432 8.163,-2.463 8.212,-2.452C8.854,-2.31 9.128,-1.813 9.099,-1.306C9.07,-0.816 8.75,-0.317 8.197,-0.125C7.847,-0.002 7.48,0.008 7.123,-0.056C6.772,-0.118 6.431,-0.251 6.121,-0.416C5.103,-0.959 4.38,-1.725 3.918,-2.642C3.463,-3.545 3.263,-4.594 3.285,-5.721C3.304,-6.612 3.454,-7.482 3.667,-8.34C3.983,-9.61 4.435,-10.855 4.782,-12.107C5.079,-13.172 5.324,-14.248 5.489,-15.333L5.45,-15.387C5.235,-15.685 5.017,-15.981 4.799,-16.277C4.518,-16.66 4.238,-17.046 3.979,-17.446L3.969,-17.463C3.469,-15.452 2.677,-13.52 2.151,-11.519C2.036,-11.081 1.934,-10.641 1.851,-10.196C1.853,-10.112 1.854,-10.028 1.854,-9.944C1.993,-9.516 2.13,-9.088 2.259,-8.658C2.706,-7.166 3.096,-5.451 3.367,-3.717C3.613,-2.155 3.765,-0.579 3.791,0.86C4.562,1.055 7.618,-0.06 6.681,1.164C6.362,1.578 5.143,1.852 3.776,1.938C3.688,3.487 3.294,4.987 2.849,6.478C2.352,8.139 1.79,9.789 1.53,11.488C1.415,12.237 1.358,12.996 1.393,13.77C1.856,15.385 1.703,17.214 0.146,19.644C0.119,19.686 0.062,19.699 0.021,19.672C-0.021,19.645 -0.034,19.589 -0.007,19.547C1.541,17.077 1.635,15.257 1.101,13.648C0.719,12.495 0.019,11.452 -0.69,10.357C-1.675,8.84 -2.676,7.225 -2.926,5.114C-3.072,3.88 -3.033,2.657 -2.898,1.44C-2.697,-0.369 -2.282,-2.163 -1.959,-3.952C-1.923,-4.15 -1.888,-4.349 -1.854,-4.548C-2.414,-5.944 -3.174,-7.221 -3.396,-8.754C-3.507,-9.525 -2.809,-10.115 -2.867,-10.864C-2.886,-11.085 -2.954,-11.293 -3.045,-11.497C-3.561,-10.622 -4.135,-9.78 -4.529,-8.861C-4.711,-8.437 -4.676,-7.944 -4.84,-7.511C-4.922,-7.297 -5.097,-7.138 -5.235,-6.961C-5.185,-5.41 -4.916,-3.918 -4.704,-2.382C-4.417,-0.297 -4.233,1.868 -4.79,4.355L-4.797,4.385C-4.633,4.453 -4.487,4.547 -4.375,4.686C-4.128,4.99 -3.697,5.369 -3.512,5.701C-3.28,6.116 -3.495,6.63 -3.33,7.07C-3.247,7.293 -3.012,7.524 -3.032,7.771C-3.064,8.156 -3.403,8.475 -3.433,8.876C-3.461,9.278 -3.205,9.719 -3.367,10.106C-3.563,10.574 -4.062,10.809 -4.294,11.252C-4.542,11.73 -4.485,12.445 -4.993,12.771C-5.416,13.043 -7.448,13.795 -6.952,12.513C-6.81,12.145 -6.338,11.926 -6.062,11.67C-5.1,10.778 -4.885,9.08 -5.353,7.899C-5.46,7.628 -5.595,7.385 -5.749,7.163C-6.022,7.806 -6.32,8.451 -6.615,9.099C-7.323,10.654 -8.015,12.225 -8.301,13.816C-8.549,15.195 -8.49,16.588 -7.869,17.999C-7.849,18.044 -7.869,18.098 -7.914,18.118C-7.96,18.139 -8.014,18.118 -8.034,18.073C-8.696,16.631 -8.778,15.197 -8.544,13.774C-8.277,12.158 -7.601,10.555 -6.904,8.97C-6.592,8.26 -6.276,7.554 -5.992,6.851C-6.814,5.892 -8.029,5.325 -8.939,4.417C-9.889,3.469 -10.54,2.145 -10.896,0.785C-11.074,1.432 -11.217,2.095 -11.313,2.78C-11.358,3.095 -11.389,3.408 -11.405,3.722C-10.557,5.524 -9.743,7.385 -9.253,9.441C-8.755,11.546 -8.489,13.479 -8.775,15.275C-9.063,17.081 -9.905,18.749 -11.63,20.312C-11.667,20.345 -11.724,20.344 -11.758,20.306C-11.792,20.27 -11.789,20.212 -11.753,20.178C-10.096,18.632 -9.295,16.997 -9.039,15.235C-8.783,13.47 -9.071,11.579 -9.586,9.523C-10.021,7.773 -10.696,6.171 -11.421,4.624C-11.409,5.208 -11.36,5.79 -11.288,6.372C-10.938,9.186 -10.038,11.975 -10.127,14.803C-10.129,14.853 -10.17,14.893 -10.22,14.891C-10.27,14.89 -10.31,14.849 -10.309,14.799C-10.264,11.978 -11.211,9.213 -11.602,6.413C-11.718,5.579 -11.784,4.742 -11.764,3.9C-11.877,3.664 -11.991,3.428 -12.104,3.193C-12.22,2.956 -12.334,2.719 -12.448,2.482C-12.646,4.361 -12.851,6.238 -13.253,8.061C-13.203,8.13 -13.156,8.202 -13.112,8.277C-12.824,8.773 -12.933,9.379 -12.687,9.886C-12.518,10.235 -12.087,10.43 -12.018,10.82C-11.858,11.716 -12.192,12.954 -12.667,13.71C-12.896,14.074 -14.736,15.364 -15.083,15.205C-15.821,14.867 -15.168,13.678 -15.214,13.157L-15.215,13.15C-15.517,13.716 -15.837,14.279 -16.168,14.847C-16.192,14.891 -16.248,14.906 -16.291,14.881C-16.335,14.856 -16.35,14.801 -16.325,14.758C-15.955,14.104 -15.6,13.459 -15.27,12.809C-15.355,12.417 -15.496,12.027 -15.478,11.631C-15.459,11.248 -15.179,11.012 -15.118,10.659C-15.013,10.048 -15.465,9.126 -15.844,8.448C-16.26,9.17 -16.71,9.899 -17.187,10.592C-17.869,11.585 -18.606,12.505 -19.377,13.233C-19.902,13.73 -20.599,14.225 -21.304,14.344C-21.795,14.427 -22.29,14.332 -22.741,13.939C-22.778,13.907 -22.782,13.849 -22.75,13.811C-22.718,13.774 -22.66,13.769 -22.622,13.802C-22.217,14.148 -21.774,14.229 -21.338,14.15C-20.671,14.031 -20.021,13.55 -19.529,13.074C-18.777,12.348 -18.061,11.433 -17.397,10.449C-16.9,9.709 -16.434,8.931 -16.005,8.163C-16.046,8.093 -16.084,8.027 -16.118,7.967C-16.65,7.042 -17.932,7.168 -18.678,6.446C-19.28,5.863 -19.03,5.005 -19.338,4.302C-19.397,4.167 -19.491,4.064 -19.592,3.966L-19.671,4.091C-20.497,5.384 -21.593,7.01 -22.985,7.975C-22.998,7.984 -23.011,7.993 -23.023,8.002C-22.816,9.241 -22.557,10.476 -22.348,11.71C-22.339,11.759 -22.372,11.806 -22.422,11.815C-22.471,11.824 -22.518,11.791 -22.526,11.741C-22.749,10.545 -23.021,9.347 -23.246,8.146C-24.138,8.697 -25.145,8.969 -26.273,8.73C-26.322,8.72 -26.354,8.673 -26.345,8.623C-26.335,8.574 -26.287,8.543 -26.238,8.553C-25.128,8.767 -24.15,8.466 -23.293,7.895C-23.438,7.095 -23.56,6.293 -23.629,5.489C-23.75,4.081 -23.712,2.666 -23.37,1.238C-23.111,0.164 -22.719,-0.914 -22.229,-1.947C-21.738,-2.978 -21.149,-3.963 -20.508,-4.858C-19.83,-5.798 -19.034,-6.665 -18.328,-7.592C-18.202,-7.756 -18.08,-7.923 -17.962,-8.092C-17.902,-8.731 -17.866,-9.375 -17.848,-10.02C-17.841,-10.279 -17.859,-10.534 -17.891,-10.788C-17.967,-11.403 -18.111,-12.009 -18.145,-12.629C-18.18,-13.263 -18.129,-13.921 -18.025,-14.578C-17.873,-15.547 -17.604,-16.513 -17.328,-17.399C-17.182,-17.866 -17.021,-18.321 -16.849,-18.765C-16.924,-19.548 -16.951,-20.334 -16.886,-21.124C-16.827,-21.833 -16.704,-22.527 -16.547,-23.213C-16.339,-24.127 -16.071,-25.028 -15.827,-25.933C-16.019,-25.729 -16.216,-25.528 -16.417,-25.329C-16.643,-25.107 -16.867,-24.893 -17.089,-24.684C-17.283,-24.104 -17.507,-23.522 -17.762,-22.935C-18.452,-21.353 -19.27,-19.817 -19.863,-18.206C-20.254,-17.146 -20.548,-16.053 -20.641,-14.891C-20.722,-13.873 -20.601,-12.85 -20.387,-11.835C-20.062,-10.302 -19.527,-8.787 -19.147,-7.335C-19.134,-7.287 -19.163,-7.237 -19.211,-7.224C-19.259,-7.211 -19.309,-7.239 -19.322,-7.288C-19.724,-8.739 -20.28,-10.25 -20.625,-11.782C-20.858,-12.821 -20.995,-13.868 -20.925,-14.912C-20.844,-16.103 -20.558,-17.226 -20.17,-18.317C-19.593,-19.941 -18.788,-21.49 -18.112,-23.086C-17.968,-23.424 -17.834,-23.76 -17.711,-24.096C-18.232,-23.599 -18.732,-23.107 -19.19,-22.569C-19.727,-21.938 -20.205,-21.243 -20.59,-20.402C-20.61,-20.357 -20.664,-20.336 -20.709,-20.356C-20.755,-20.377 -20.775,-20.43 -20.755,-20.476C-20.381,-21.343 -19.908,-22.064 -19.373,-22.721C-18.804,-23.419 -18.165,-24.043 -17.499,-24.697C-17.282,-25.344 -17.104,-25.988 -16.958,-26.626C-17.706,-25.807 -18.51,-25.026 -19.194,-24.162C-19.637,-23.603 -20.029,-23.01 -20.32,-22.347C-20.34,-22.301 -20.394,-22.28 -20.439,-22.299C-20.485,-22.319 -20.507,-22.372 -20.487,-22.418C-20.205,-23.104 -19.819,-23.722 -19.379,-24.305C-18.601,-25.336 -17.653,-26.256 -16.827,-27.254C-16.438,-29.278 -16.401,-31.259 -16.659,-33.21C-16.982,-35.647 -17.764,-38.036 -18.892,-40.396" style="fill:rgb(31,47,59);"/>
        </g>
    </g>
</svg>
