<svg width="286" height="111" viewBox="0 0 286 111" fill="none" xmlns="http://www.w3.org/2000/svg">
<path d="M205.444 0.095174C213.444 1.14816 214.444 1.59515 214.444 1.59515C214.444 1.59515 217.944 2.59515 221.572 2.75532C226.452 2.7601 230.949 2.71046 235.71 2.74022C235.218 2.49433 236.337 2.8745 235.71 2.74022C236.308 2.81063 238.444 2.75532 238.444 2.75532C243.315 2.84117 246.95 5.36873 247.321 9.06899C247.836 14.1975 245.719 18.111 240.905 18.9204C235.841 19.7718 230.644 19.5167 225.506 19.7298C208.666 20.428 191.234 14.6791 175.404 26.1112C174.14 27.0234 173.231 28.9751 172.649 30.6805C172.444 31.2832 173.575 33.2523 174.326 33.4688C177.967 34.5178 181.664 35.6411 185.383 35.9009C198.067 36.7871 210.777 37.1479 223.462 38.0294C243.952 39.4534 278.944 38.5952 284.444 42.0952C285.944 44.5952 285.944 47.0952 284.682 49.7679C282.423 50.954 280.422 51.9368 278.431 51.9135C263.337 51.737 248.242 51.0529 233.153 51.2095C227.404 51.2692 221.627 52.8834 215.955 54.3073C214.452 54.6845 212.011 57.3812 212.219 58.3247C212.796 60.9481 214.093 64.0474 215.924 65.4208C218.784 67.5657 222.233 68.9522 225.585 69.7366C230.223 70.822 234.997 71.1382 239.725 71.6095C242.142 71.8505 243.142 73.0635 243.15 76.0143C243.157 78.8938 241.935 79.8183 239.852 80.0152C237.071 80.2781 234.29 80.8144 231.513 80.7864C213.222 80.6019 194.932 80.1793 176.641 80.1862C174.436 80.1871 172.231 82.3007 170.026 83.4352C171.638 85.2642 172.988 87.8237 174.907 88.7914C181.924 92.329 189.172 95.2174 196.227 98.6533C197.486 99.266 199.163 101.498 199.002 102.663C198.805 104.095 197.009 106.001 195.683 106.295C189.112 107.753 182.481 109.6 175.847 109.746C155.141 110.199 134.421 110.199 113.713 109.816C107.373 109.699 101.025 107.978 94.7551 106.533C93.3102 106.2 91.3573 104.139 91.1416 102.58C90.9525 101.214 92.5925 98.8084 93.9205 97.9697C96.7244 96.1988 99.8419 95.1171 102.85 93.8165C107.425 91.8389 112.084 90.1047 116.559 87.8528C117.886 87.1851 118.717 85.1255 119.775 83.7036C118.538 82.8099 117.356 81.297 116.054 81.1319C110.956 80.4858 105.821 80.0001 100.696 79.9399C88.6641 79.7986 76.6299 79.9353 64.5967 79.962C59.8702 79.9724 55.1427 80.0621 50.4176 79.9705C48.2811 79.9291 46.1686 79.7273 46.1563 76.0294C46.1451 72.6274 47.7285 71.8093 50.132 71.6845C52.9229 71.5396 55.7195 71.3735 58.4946 71.011C64.6383 70.2083 70.6698 68.8758 75.5257 63.815C78.6863 60.521 77.8031 57.4198 74.299 54.7298C69.0422 50.6942 63.2063 51.8952 57.6994 51.4172C49.9368 50.7435 42.0743 51.9124 34.2564 51.8649C23.1369 51.7974 11.4445 54.0952 0.944406 49.985C-1.05549 47.5952 0.444365 46.0952 2.4445 44.5952C4.44437 43.5952 18.243 39.5681 26.6555 39.0466C42.2433 38.0803 72.9444 35.5952 72.9444 35.5952C72.9444 35.5952 101.441 35.1274 114.088 31.9997C115.038 31.765 116.383 30.7877 116.543 29.9007C116.702 29.0194 115.789 27.2007 115.014 26.8598C111.536 25.3306 107.939 24.1815 104.239 22.5806C100.74 21.6349 97.3888 21.0038 93.6558 20.3481C88.3159 20.332 83.3574 20.3406 77.9993 20.2511C69.9137 20.2389 62.2278 20.3248 54.1848 20.3844C51.6344 20.0044 49.4331 19.7092 47.2496 19.2852C42.5277 18.3683 41.1992 15.9575 41.4591 8.93889C41.6218 4.54449 42.9444 2.59519 47.2496 1.09519C48.356 1.01126 50.0191 -0.0538019 51.4444 0.0951743C55.2102 0.177821 58.1012 0.18141 61.9444 0.0951743C67.3898 0.0744321 72.5648 0.103013 77.9993 0.0952082C83.4338 0.0873906 88.9444 0.0952082 94.4444 0.0951803C106.637 0.439235 119.641 -0.0131431 131.444 0.0951899C149.473 0.260656 162.416 0.219195 180.444 0.095174C181.728 0.0863455 203.851 -0.114481 205.444 0.095174Z" fill="#8590AA" fill-opacity="0.9"/>
</svg>
