<?xml version="1.0" encoding="UTF-8" standalone="no"?>
<!DOCTYPE svg PUBLIC "-//W3C//DTD SVG 1.1//EN" "http://www.w3.org/Graphics/SVG/1.1/DTD/svg11.dtd">
<svg width="100%" height="100%" viewBox="0 0 191 123" version="1.1" xmlns="http://www.w3.org/2000/svg" xmlns:xlink="http://www.w3.org/1999/xlink" xml:space="preserve" xmlns:serif="http://www.serif.com/" style="fill-rule:evenodd;clip-rule:evenodd;stroke-linejoin:round;stroke-miterlimit:2;">
    <g transform="matrix(1,0,0,1,-142,-2097)">
        <g transform="matrix(-5.48134,0,0,5.48134,194.176,2219.26)">
            <path d="M0,-21.888C-1.202,-21.952 -2.44,-22.199 -3.644,-22.144C-9.069,-21.895 -16.803,-19.943 -20.199,-15.348C-21.112,-14.113 -21.933,-12.613 -22.269,-11.101C-22.454,-10.265 -22.486,-9.346 -22.848,-8.559C-23.352,-7.462 -24.347,-6.652 -25.164,-5.812L-25.042,-5.433C-25.073,-4.982 -23.083,-3.969 -22.648,-3.531C-20.629,-1.492 -19.374,-2.263 -16.979,-1.458C-16.553,-1.315 -16.268,-0.966 -15.874,-0.77C-14.844,-0.258 -12.621,0.311 -11.452,0.065C-10.376,-0.161 -10.729,-1.311 -11.163,-1.922C-11.452,-2.327 -11.944,-2.487 -12.226,-2.862C-12.248,-2.892 -12.315,-2.935 -12.285,-2.956C-12.09,-3.092 -11.661,-3.087 -11.437,-3.093C-8.91,-3.152 -2.636,-0.439 -1.268,-3.464C-0.681,-4.762 -3.227,-5.113 -2.693,-6.432C-1.986,-8.18 -0.209,-5.034 0.378,-5.798C0.634,-6.132 0.433,-7.048 0.381,-7.422C0.207,-8.695 0.527,-9.951 0.425,-11.216C0.374,-11.866 0.388,-12.411 0.593,-13.035C0.606,-13.075 0.944,-14.006 0.799,-14.018C-0.137,-14.096 -1.845,-12.673 -2.584,-12.898C-3.293,-13.115 -3.807,-14.438 -4.249,-14.977C-4.987,-15.876 -6.328,-16.569 -7.395,-16.969C-9.223,-17.656 -11.149,-17.481 -13.063,-17.466C-13.527,-17.463 -13.996,-17.453 -14.458,-17.412C-14.537,-17.406 -14.995,-17.319 -15.029,-17.372C-15.083,-17.454 -14.857,-17.468 -14.772,-17.518C-14.539,-17.653 -14.314,-17.799 -14.08,-17.931C-13.008,-18.537 -11.854,-19.083 -10.712,-19.541C-6.197,-21.355 -1.598,-21.587 3.162,-20.941C4.067,-20.819 5.008,-20.837 5.898,-20.628C6.625,-20.457 7.293,-20.082 8.02,-19.93C8.177,-19.897 9.576,-19.711 9.44,-20.136C9.369,-20.362 7.561,-20.754 7.253,-20.825C4.911,-21.357 2.399,-21.761 0,-21.888" style="fill:rgb(31,47,59);"/>
        </g>
    </g>
</svg>
