<?xml version="1.0" encoding="UTF-8" standalone="no"?>
<!DOCTYPE svg PUBLIC "-//W3C//DTD SVG 1.1//EN" "http://www.w3.org/Graphics/SVG/1.1/DTD/svg11.dtd">
<svg width="100%" height="100%" viewBox="0 0 271 369" version="1.1" xmlns="http://www.w3.org/2000/svg" xmlns:xlink="http://www.w3.org/1999/xlink" xml:space="preserve" xmlns:serif="http://www.serif.com/" style="fill-rule:evenodd;clip-rule:evenodd;stroke-linejoin:round;stroke-miterlimit:2;">
    <g transform="matrix(1,0,0,1,-737,-1836)">
        <g transform="matrix(3.90828,1.50087,-1.50087,3.90828,752.131,2061.88)">
            <path d="M0,-40.216C0.293,-41.868 -0.586,-45.029 -1.442,-47.045C-1.938,-48.212 -5.016,-52.606 -3.774,-53.389C-2.381,-54.267 -0.738,-50.573 0.178,-50.046C1.988,-49.005 6.097,-51.778 7.43,-53.056C9.895,-55.419 4.546,-60.079 6.7,-60.222C8.705,-60.355 12.071,-55.338 13.84,-54.264C15.199,-53.439 16.983,-53.256 18.526,-52.914C21.411,-52.275 24.251,-52.823 27.162,-52.732C30.554,-52.624 33.918,-52.57 37.298,-52.194C38.891,-52.017 44.786,-53.044 45.642,-51.245C45.831,-50.849 45.843,-50.396 45.528,-50.063C44.63,-49.109 41.157,-47.691 40.014,-47.09C37.839,-45.946 35.326,-42.606 34.175,-40.492C32.98,-38.298 32.179,-35.794 31.783,-33.316C31.456,-31.27 35.662,-27.703 35.371,-25.508C36.299,-22.056 36.927,-16.682 39.025,-12.563C41.715,-7.281 41.333,0.926 41.396,6.798C41.427,9.743 40.834,13.888 43.183,16.203C46.347,19.321 50.725,11.428 53.977,10.755C54.781,10.589 59.343,10.027 58.946,11.498C58.787,12.09 54.296,12.24 52.607,13.184C51.171,13.987 50.642,15.616 49.479,16.708C46.656,19.359 42.312,20.139 39.768,16.671C36.533,12.26 37.639,7.362 37.651,2.324C37.659,-0.872 37.457,-4.086 36.708,-7.196C36.057,-9.9 35.199,-13.472 32.46,-14.779C30.804,-15.57 28.916,-15.464 27.15,-15.819C22.594,-16.733 18.296,-18.761 13.571,-18.733C11.625,-18.721 9.641,-17.814 7.949,-16.93C6.799,-16.33 5.732,-15.58 4.569,-14.991C2.431,-13.906 -0.16,-13.306 -1.967,-11.661C-2.917,-10.798 -4.854,-6.21 -5.561,-6.554C-8.1,-7.789 -7.521,-13.993 -7.114,-16.154C-6.387,-20.015 -4.728,-23.614 -3.435,-27.307C-2.457,-30.102 -1.773,-33.014 -1.11,-35.895C-0.766,-37.389 -0.259,-38.754 0,-40.216" style="fill:rgb(31,47,59);"/>
        </g>
    </g>
</svg>
