<?xml version="1.0" encoding="UTF-8" standalone="no"?>
<!DOCTYPE svg PUBLIC "-//W3C//DTD SVG 1.1//EN" "http://www.w3.org/Graphics/SVG/1.1/DTD/svg11.dtd">
<svg width="100%" height="100%" viewBox="0 0 127 65" version="1.1" xmlns="http://www.w3.org/2000/svg" xmlns:xlink="http://www.w3.org/1999/xlink" xml:space="preserve" xmlns:serif="http://www.serif.com/" style="fill-rule:evenodd;clip-rule:evenodd;stroke-linejoin:round;stroke-miterlimit:2;">
    <g transform="matrix(1,0,0,1,-223,-709)">
        <g transform="matrix(-3.27884,0,0,3.27884,263.64,760.083)">
            <path d="M0,-11.319C-1.631,-11.861 -4.252,-11.867 -5.996,-12.076C-11.528,-12.736 -17.538,-13.559 -22.428,-10.29C-23.693,-9.444 -25.392,-8.14 -25.935,-6.654C-26.351,-5.515 -26.216,-4.064 -26.229,-2.868L-26.127,-1.876C-25.803,-0.731 -24.532,-0.709 -23.537,-0.515C-22.796,-0.37 -21.985,0.334 -21.276,0.374C-20.979,0.391 -20.81,0.085 -20.544,-0.012C-19.631,-0.345 -18.272,-0.04 -17.395,0.254C-15.951,0.737 -14.714,4.282 -13.21,3.991C-12.574,3.867 -14.328,0.064 -13.418,-0.352C-11.648,-1.161 -7.721,-1.525 -5.737,-1.246C-4.742,-1.106 -1.392,-0.363 -0.516,-0.812C-0.103,-1.023 -1.881,-2.304 -2.242,-2.781C-2.264,-2.809 -2.432,-3.07 -2.374,-3.092C0.621,-4.222 3.986,-4.857 7.19,-4.408C8.522,-4.221 9.769,-3.571 11.095,-3.402C11.434,-3.359 12.451,-3.255 12.392,-3.837C12.261,-5.109 11.17,-6.091 10.934,-7.285C10.823,-7.841 10.54,-9.968 10.581,-10.45C10.651,-11.275 11.095,-11.69 10.908,-12.613C10.804,-13.129 10.763,-15.337 10.489,-15.481C10.263,-15.601 8.109,-13.987 7.798,-13.737C6.033,-12.318 3.043,-8.541 0.71,-8.523C-0.861,-8.511 1.82,-10.715 0,-11.319" style="fill:rgb(31,47,59);"/>
        </g>
    </g>
</svg>
