<?xml version="1.0" encoding="UTF-8" standalone="no"?>
<!DOCTYPE svg PUBLIC "-//W3C//DTD SVG 1.1//EN" "http://www.w3.org/Graphics/SVG/1.1/DTD/svg11.dtd">
<svg width="100%" height="100%" viewBox="0 0 158 62" version="1.1" xmlns="http://www.w3.org/2000/svg" xmlns:xlink="http://www.w3.org/1999/xlink" xml:space="preserve" xmlns:serif="http://www.serif.com/" style="fill-rule:evenodd;clip-rule:evenodd;stroke-linejoin:round;stroke-miterlimit:2;">
    <g transform="matrix(1,0,0,1,-188,-908)">
        <g transform="matrix(-3.27884,0,0,3.27884,276.528,964.998)">
            <path d="M0,-15.898C-1.278,-16.324 -2.593,-17.03 -3.942,-17.186C-5.22,-17.334 -6.343,-16.112 -7.579,-16.296C-11.344,-16.855 -14.85,-16.988 -17.946,-14.429C-19.261,-13.342 -20.395,-11.945 -20.913,-10.288L-20.934,-9.792C-21.029,-9.231 -19.675,-8.143 -19.27,-7.812C-18.883,-7.497 -18.825,-6.662 -18.375,-6.487C-17.977,-6.333 -17.408,-6.597 -16.973,-6.531C-16.344,-6.434 -12.635,-4.527 -12.549,-4.21C-12.299,-3.286 -15.198,0.03 -13.748,0.627C-13.168,0.865 -12.777,-0.275 -12.597,-0.635C-12.087,-1.649 -10.903,-3.406 -9.558,-3.344C-8.222,-3.283 -4.316,-1.473 -3.247,-0.948C-2.411,-0.537 -1.284,0.278 -0.3,0.06C0.783,-0.18 -1.479,-1.927 -1.143,-2.599C-1.111,-2.662 -1.026,-2.648 -0.969,-2.649C0.259,-2.677 1.501,-2.647 2.727,-2.624C3.744,-2.605 4.872,-2.725 5.877,-2.558C7.504,-2.288 8.966,-1.656 10.65,-1.546C11.721,-1.476 13.14,-1.576 13.118,-1.654C12.963,-2.213 11.897,-2.63 11.586,-3.11C11.574,-3.128 11.416,-3.379 11.457,-3.405C11.573,-3.48 14.115,-2.851 14.322,-2.799C16.748,-2.2 19.229,-1.624 21.456,-0.443C22.334,0.021 23.704,1.436 24.756,1.208C25.347,1.08 23.382,-0.221 23.706,-1.19C24.35,-3.118 26.606,-4.841 26.984,-6.639C27.209,-7.709 24.641,-7.354 24.083,-7.252C21.756,-6.825 16.47,-5.962 14.257,-7.46C13.201,-8.173 17.267,-9.394 16.026,-10.456C15.114,-11.236 8.97,-13.186 7.488,-13.646C5.004,-14.418 2.466,-15.077 0,-15.898" style="fill:rgb(31,47,59);"/>
        </g>
    </g>
</svg>
