<?xml version="1.0" encoding="UTF-8" standalone="no"?>
<!DOCTYPE svg PUBLIC "-//W3C//DTD SVG 1.1//EN" "http://www.w3.org/Graphics/SVG/1.1/DTD/svg11.dtd">
<svg width="100%" height="100%" viewBox="0 0 263 261" version="1.1" xmlns="http://www.w3.org/2000/svg" xmlns:xlink="http://www.w3.org/1999/xlink" xml:space="preserve" xmlns:serif="http://www.serif.com/" style="fill-rule:evenodd;clip-rule:evenodd;stroke-linejoin:round;stroke-miterlimit:2;">
    <g transform="matrix(1,0,0,1,-87,-709)">
        <path d="M276.528,912.871C280.719,911.474 285.03,909.16 289.454,908.648C293.644,908.163 297.326,912.17 301.379,911.566C313.723,909.733 325.219,909.297 335.37,917.688C339.682,921.252 343.4,925.833 345.099,931.266L345.168,932.892C345.479,934.731 341.039,938.299 339.712,939.384C338.443,940.417 338.252,943.155 336.777,943.728C335.472,944.233 333.606,943.368 332.18,943.584C330.118,943.902 317.956,950.155 317.674,951.194C316.855,954.224 326.36,965.097 321.606,967.054C319.704,967.834 318.422,964.097 317.832,962.916C316.16,959.591 312.278,953.83 307.867,954.034C303.487,954.234 290.68,960.168 287.175,961.89C284.434,963.237 280.738,965.91 277.512,965.195C273.961,964.408 281.378,958.68 280.276,956.477C280.171,956.27 279.892,956.316 279.706,956.313C275.679,956.221 271.607,956.319 267.587,956.395C264.252,956.457 260.554,956.063 257.259,956.611C251.924,957.496 247.13,959.568 241.609,959.929C238.097,960.159 233.444,959.831 233.517,959.575C234.025,957.742 237.52,956.375 238.54,954.801C238.579,954.742 239.097,953.919 238.963,953.834C238.582,953.588 230.248,955.65 229.569,955.821C221.614,957.785 213.48,959.673 206.178,963.546C203.299,965.067 198.807,969.707 195.358,968.959C193.42,968.539 199.863,964.274 198.8,961.096C196.689,954.775 189.292,949.125 188.052,943.23C187.315,939.722 195.735,940.886 197.564,941.22C205.194,942.62 222.526,945.45 229.782,940.538C233.244,938.2 219.913,934.197 223.982,930.715C226.972,928.157 247.117,921.763 251.976,920.255C260.121,917.724 268.443,915.563 276.528,912.871ZM203.859,867.253C202.715,867.532 201.351,868.22 200.148,868.02C198.046,867.666 196.423,865.886 194.206,865.708C189.347,865.325 184.376,866.23 179.452,865.872C173.609,865.446 169.123,869.728 164.202,869.4C162.9,869.315 162.625,866.587 162.385,866.574C159.87,866.433 156.188,867.017 154.624,864.269C154.014,863.187 156.66,860.856 156.303,860.587C154.854,859.508 150.913,860.426 149.27,860.361C145.742,860.223 142.24,859.525 138.725,859.433C135.771,859.354 132.676,860.357 129.744,859.679C128.403,859.371 124.347,857.256 124.121,855.777C123.974,854.803 125.456,853.708 124.941,852.777C124.324,851.669 120.465,850.439 119.37,849.911C112.219,846.478 103.15,852.551 95.956,853.439C94.012,853.678 88.074,853.711 87.818,850.544C87.615,847.99 92.235,842.642 91.877,838.73C91.654,836.317 86.713,829.415 89.966,827.664C91.835,826.654 95.359,829.543 96.786,830.386C101.464,833.153 109.973,841.281 115.429,839.93C117.905,839.317 109.491,834.999 114.472,832.251C117.236,830.727 125.738,828.222 129.026,828.012C130.853,827.897 132.643,828.422 134.463,828.317C135.82,828.238 137.063,827.635 138.45,827.664C140.519,827.71 142.538,828.323 144.627,828.277C148.909,828.179 153.227,828.11 157.529,827.933C159.182,827.864 160.572,827.081 162.257,827.189C173.723,827.926 198.928,835.753 206.977,844.124C210.581,847.872 213.276,853.806 215.289,858.518L214.837,860.803C211.984,865.187 208.84,866.04 203.859,867.253ZM263.64,722.97C268.988,721.192 277.582,721.173 283.3,720.488C301.439,718.324 321.144,715.625 337.178,726.344C341.326,729.117 346.896,733.393 348.677,738.265C350.041,742 349.598,746.758 349.641,750.679L349.306,753.932C348.244,757.686 344.077,757.758 340.814,758.394C338.385,758.87 335.725,761.178 333.401,761.309C332.427,761.365 331.873,760.361 331.001,760.043C328.007,758.952 323.551,759.952 320.676,760.916C315.941,762.499 311.885,774.123 306.954,773.169C304.868,772.762 310.619,760.293 307.636,758.929C301.832,756.276 288.956,755.083 282.451,755.997C279.189,756.456 268.204,758.893 265.332,757.42C263.978,756.729 269.808,752.528 270.991,750.964C271.064,750.873 271.614,750.017 271.424,749.945C261.604,746.24 250.571,744.157 240.065,745.63C235.698,746.243 231.609,748.374 227.262,748.928C226.15,749.069 222.815,749.41 223.009,747.502C223.438,743.331 227.016,740.111 227.789,736.196C228.153,734.373 229.081,727.399 228.947,725.819C228.717,723.114 227.262,721.753 227.875,718.727C228.216,717.035 228.35,709.795 229.249,709.323C229.99,708.93 237.052,714.222 238.072,715.041C243.859,719.694 253.663,732.078 261.312,732.137C266.463,732.177 257.673,724.95 263.64,722.97Z" style="fill:rgb(31,47,59);"/>
    </g>
</svg>
