<?xml version="1.0" encoding="UTF-8" standalone="no"?>
<!DOCTYPE svg PUBLIC "-//W3C//DTD SVG 1.1//EN" "http://www.w3.org/Graphics/SVG/1.1/DTD/svg11.dtd">
<svg width="100%" height="100%" viewBox="0 0 236 131" version="1.1" xmlns="http://www.w3.org/2000/svg" xmlns:xlink="http://www.w3.org/1999/xlink" xml:space="preserve" xmlns:serif="http://www.serif.com/" style="fill-rule:evenodd;clip-rule:evenodd;stroke-linejoin:round;stroke-miterlimit:2;">
    <g transform="matrix(1,0,0,1,-96,-2333)">
        <g transform="matrix(-5.48134,0,0,5.48134,109.465,2432.86)">
            <path d="M0,-12.407C-0.808,-13.097 -1.622,-13.827 -2.527,-14.386C-4.72,-15.739 -8.105,-16.442 -10.641,-16.948C-14.05,-17.629 -17.505,-17.963 -20.981,-18.031C-22.233,-18.055 -23.524,-18.226 -24.774,-18.086C-26.242,-17.921 -27.562,-17.34 -28.998,-17.031C-31.385,-16.518 -33.726,-16.391 -35.565,-14.584C-37.276,-12.902 -37.53,-10.12 -38.465,-8.018C-38.898,-7.045 -40.241,-5.352 -40.372,-4.521L-40.527,-3.945C-38.629,-4.418 -37.756,-1.171 -36.801,-0.129C-36.01,0.736 -34.917,0.778 -34.058,1.471C-33.229,2.138 -32.562,2.995 -31.772,3.706C-30.728,4.647 -29.192,5.145 -27.842,5.438C-27.356,5.542 -25.746,5.819 -25.568,5.104C-25.377,4.332 -26.646,2.598 -25.786,2.54C-24.453,2.451 -21.676,3.905 -20.168,4.371C-19.682,4.522 -18.585,4.984 -18.115,4.669C-17.229,4.077 -17.618,2.132 -17.603,1.186C-17.598,0.906 -17.609,0.013 -17.285,-0.122C-16.536,-0.433 -15.113,1.507 -14.481,1.973C-14.38,2.048 -13.572,2.706 -13.439,2.487C-13.115,1.946 -13.763,1.229 -13.58,0.662C-13.43,0.197 -13.082,-0.189 -12.903,-0.645C-12.345,-2.078 -12.08,-3.873 -12.193,-5.403C-12.224,-5.826 -12.138,-7.008 -12.531,-7.274C-13.191,-7.722 -14.333,-6.679 -14.782,-6.296C-14.845,-6.242 -15.371,-5.74 -15.459,-5.812C-16.125,-6.353 -16.51,-9.606 -17.422,-10.719C-18.895,-12.517 -21.134,-12.951 -23.077,-13.994C-23.337,-14.133 -24.938,-14.838 -24.474,-15.303C-24.204,-15.573 -23.744,-15.681 -23.399,-15.831C-21.849,-16.501 -20.487,-16.856 -18.779,-16.714C-14.847,-16.387 -8.797,-16.538 -5.259,-14.863C-3.486,-14.024 -1.912,-12.95 -0.232,-11.961C0.342,-11.623 0.895,-11.24 1.479,-10.92C1.584,-10.862 2.37,-10.553 2.328,-10.678C2.16,-11.163 0.486,-11.992 0,-12.407" style="fill:rgb(31,47,59);"/>
        </g>
    </g>
</svg>
