<?xml version="1.0" encoding="UTF-8" standalone="no"?>
<!DOCTYPE svg PUBLIC "-//W3C//DTD SVG 1.1//EN" "http://www.w3.org/Graphics/SVG/1.1/DTD/svg11.dtd">
<svg width="100%" height="100%" viewBox="0 0 239 139" version="1.1" xmlns="http://www.w3.org/2000/svg" xmlns:xlink="http://www.w3.org/1999/xlink" xml:space="preserve" xmlns:serif="http://www.serif.com/" style="fill-rule:evenodd;clip-rule:evenodd;stroke-linejoin:round;stroke-miterlimit:2;">
    <g transform="matrix(1,0,0,1,103,-2210)">
        <g transform="matrix(-5.48134,0,0,5.48134,-60.8953,2295.44)">
            <path d="M0,-5.832C-2.228,-7.936 -4.598,-10.074 -7.319,-11.521C-10.521,-13.226 -14.072,-13.943 -17.596,-14.656C-20.116,-15.166 -23.417,-15.962 -25.965,-15.057C-29.378,-13.845 -30.651,-11.504 -32.692,-8.889C-33.179,-8.266 -33.738,-7.941 -34.489,-7.688C-34.824,-7.575 -35.604,-7.378 -35.75,-7C-35.421,-6.853 -34.462,-5.995 -34.38,-5.782C-34.264,-5.484 -34.354,-5.127 -34.354,-4.816C-34.352,-4.007 -34.283,-3.071 -33.907,-2.341C-33.398,-1.352 -31.888,-0.071 -31.679,0.774C-31.307,2.283 -31.944,3.871 -30.479,5.24C-28.71,6.896 -27.947,3.814 -27.052,3.314C-26.685,3.109 -26.203,3.175 -25.816,3.283C-24.76,3.582 -23.826,4.464 -22.986,5.133C-21.491,6.325 -20.067,7.47 -18.411,8.441C-17.646,8.892 -16.318,10.13 -15.364,9.477C-14.81,9.097 -14.903,8.455 -14.841,7.861C-14.781,7.274 -14.592,6.707 -14.534,6.122C-14.479,5.57 -14.619,5.027 -14.645,4.48C-14.677,3.792 -14.634,2.781 -14.575,2.767C-13.77,2.564 -13.098,4.657 -12.484,4.718C-12.046,4.762 -12.002,4.016 -11.811,3.747C-11.043,2.672 -10.281,1.608 -9.631,0.452C-9.477,0.177 -8.83,-0.228 -8.785,-0.49C-8.701,-0.984 -9.322,-1.13 -9.67,-1.155C-10.632,-1.225 -11.463,-1.104 -12.393,-0.932C-12.505,-0.911 -12.259,-1.117 -12.175,-1.194C-12.012,-1.344 -11.824,-1.474 -11.629,-1.58C-10.953,-1.95 -10.741,-2.289 -10.647,-3.076C-10.397,-5.175 -11.365,-7.02 -12.538,-8.682C-13.36,-9.848 -14.412,-10.834 -15.563,-11.667C-15.938,-11.937 -16.33,-12.183 -16.724,-12.423C-16.866,-12.509 -17.012,-12.584 -17.159,-12.661C-17.184,-12.675 -17.35,-12.748 -17.313,-12.764C-16.93,-12.927 -16.312,-12.687 -15.938,-12.612C-14.764,-12.375 -13.586,-12.054 -12.426,-11.759C-7.372,-10.477 -1.66,-7.215 1.902,-3.368C3.265,-1.897 4.55,-0.296 5.789,1.28C6.183,1.781 6.542,2.304 6.898,2.831C6.996,2.975 7.492,3.767 7.515,3.511C7.591,2.657 6.526,1.596 6.063,0.939C4.445,-1.359 2.037,-3.907 0,-5.832" style="fill:rgb(31,47,59);"/>
        </g>
    </g>
</svg>
