<?xml version="1.0" encoding="UTF-8" standalone="no"?>
<!DOCTYPE svg PUBLIC "-//W3C//DTD SVG 1.1//EN" "http://www.w3.org/Graphics/SVG/1.1/DTD/svg11.dtd">
<svg width="100%" height="100%" viewBox="0 0 129 43" version="1.1" xmlns="http://www.w3.org/2000/svg" xmlns:xlink="http://www.w3.org/1999/xlink" xml:space="preserve" xmlns:serif="http://www.serif.com/" style="fill-rule:evenodd;clip-rule:evenodd;stroke-linejoin:round;stroke-miterlimit:2;">
    <g transform="matrix(1,0,0,1,-87,-827)">
        <g transform="matrix(-3.27884,0,0,3.27884,203.859,829.13)">
            <path d="M0,11.627C0.349,11.712 0.765,11.922 1.132,11.861C1.773,11.753 2.268,11.21 2.944,11.156C4.426,11.039 5.942,11.315 7.444,11.206C9.226,11.076 10.594,12.382 12.095,12.282C12.492,12.256 12.576,11.424 12.649,11.42C13.416,11.377 14.539,11.555 15.016,10.717C15.202,10.387 14.395,9.676 14.504,9.594C14.946,9.265 16.148,9.545 16.649,9.525C17.725,9.483 18.793,9.27 19.865,9.242C20.766,9.218 21.71,9.524 22.604,9.317C23.013,9.223 24.25,8.578 24.319,8.127C24.364,7.83 23.912,7.496 24.069,7.212C24.257,6.874 25.434,6.499 25.768,6.338C27.949,5.291 30.715,7.143 32.909,7.414C33.502,7.487 35.313,7.497 35.391,6.531C35.453,5.752 34.044,4.121 34.153,2.928C34.221,2.192 35.728,0.087 34.736,-0.447C34.166,-0.755 33.091,0.126 32.656,0.383C31.229,1.227 28.634,3.706 26.97,3.294C26.215,3.107 28.781,1.79 27.262,0.952C26.419,0.487 23.826,-0.277 22.823,-0.341C22.266,-0.376 21.72,-0.216 21.165,-0.248C20.751,-0.272 20.372,-0.456 19.949,-0.447C19.318,-0.433 18.702,-0.246 18.065,-0.26C16.759,-0.29 15.442,-0.311 14.13,-0.365C13.626,-0.386 13.202,-0.625 12.688,-0.592C9.191,-0.367 1.504,2.02 -0.951,4.573C-2.05,5.716 -2.872,7.526 -3.486,8.963L-3.348,9.66C-2.478,10.997 -1.519,11.257 0,11.627" style="fill:rgb(31,47,59);"/>
        </g>
    </g>
</svg>
